<?xml version="1.0" encoding="UTF-8"?>
<svg version="1.1" xmlns="http://www.w3.org/2000/svg" width="192" height="192">
<path d="M0 0 C1.22799316 0.00201416 2.45598633 0.00402832 3.72119141 0.00610352 C15.19278781 0.1289872 26.47175276 1.2499387 37.80908203 2.96606445 C39.77589011 3.25254574 41.75486793 3.45404644 43.734375 3.6328125 C46.1875 4.3125 46.1875 4.3125 47.6484375 6.30859375 C47.95007813 7.11425781 48.25171875 7.91992188 48.5625 8.75 C48.87960938 9.55308594 49.19671875 10.35617187 49.5234375 11.18359375 C50.1875 13.3125 50.1875 13.3125 50.1875 15.3125 C50.75597656 14.86777344 51.32445312 14.42304688 51.91015625 13.96484375 C58.19006692 9.36237165 58.19006692 9.36237165 62.9375 9.125 C67.0096845 10.61291357 68.74874195 11.69131381 71.1875 15.3125 C72.60094365 23.809115 69.76078247 32.38863852 67.6875 40.5625 C67.18312164 42.5722761 66.68230368 44.58273258 66.1895752 46.59539795 C65.74441368 48.41095752 65.28759851 50.22364821 64.83007812 52.03613281 C63.65653624 57.75259804 63.65653624 57.75259804 65.24609375 63.140625 C65.70113281 63.60984375 66.15617188 64.0790625 66.625 64.5625 C70.64045471 68.87176847 70.53238418 71.75094323 70.46484375 77.484375 C69.92093009 83.03076222 67.59666875 86.09122042 63.375 89.75 C59.70545675 91.54879571 57.22364402 91.63539152 53.1875 91.3125 C53.9506861 92.92031893 54.72337058 94.52363138 55.5 96.125 C55.92925781 97.01832031 56.35851562 97.91164063 56.80078125 98.83203125 C58.51240268 101.89366395 60.04987401 103.74368701 63.1875 105.3125 C65.38234216 106.40992108 66.69071995 107.36668594 68.1875 109.3125 C68.1875 110.6325 68.1875 111.9525 68.1875 113.3125 C70.25847697 115.35581967 70.25847697 115.35581967 73.1875 116.3125 C76.12494278 115.62133699 78.50169929 114.65540035 81.1875 113.3125 C90.89150773 112.3729056 90.89150773 112.3729056 94.6875 115.125 C95.1825 115.846875 95.6775 116.56875 96.1875 117.3125 C98.77822324 120.25650369 101.64539478 121.65951756 105.1875 123.3125 C104.69811677 130.7755943 103.68052866 139.16109944 98.6953125 145.0859375 C94.65719822 148.5615284 90.98374351 149.66023604 85.703125 149.6015625 C77.17605589 148.621744 67.22610208 145.59570368 61.1875 139.3125 C58.97337867 137.7160165 56.75649368 136.15807604 54.5 134.625 C51.3753125 132.4903125 51.3753125 132.4903125 48.1875 130.3125 C47.5275 135.5925 46.8675 140.8725 46.1875 146.3125 C44.8675 146.3125 43.5475 146.3125 42.1875 146.3125 C41.90147348 149.14722711 41.65317649 151.97827835 41.44921875 154.8203125 C41.27905393 157.09086995 41.05523505 159.35825843 40.76953125 161.6171875 C40.33699467 166.84523839 40.22129971 170.00449155 43.41796875 174.33203125 C46.1273369 177.19737989 46.1273369 177.19737989 49 179.6796875 C51.1875 182.3125 51.1875 182.3125 51.1875 189.3125 C39.3075 189.3125 27.4275 189.3125 15.1875 189.3125 C15.1875 177.4325 15.1875 165.5525 15.1875 153.3125 C13.8675 153.3125 12.5475 153.3125 11.1875 153.3125 C11.1875 165.1925 11.1875 177.0725 11.1875 189.3125 C-0.6925 189.3125 -12.5725 189.3125 -24.8125 189.3125 C-24.8125 182.3125 -24.8125 182.3125 -23.38671875 180.23828125 C-22.76410156 179.70589844 -22.14148437 179.17351562 -21.5 178.625 C-16.50794619 174.39003289 -16.50794619 174.39003289 -14.4140625 168.39453125 C-14.45858685 162.18338506 -14.79821575 156.90310486 -17.15625 151.1171875 C-17.8125 149.3125 -17.8125 149.3125 -17.8125 146.3125 C-18.4725 146.3125 -19.1325 146.3125 -19.8125 146.3125 C-21.14583333 140.97916667 -22.47916667 135.64583333 -23.8125 130.3125 C-24.4725 130.3125 -25.1325 130.3125 -25.8125 130.3125 C-26.8025 129.3225 -26.8025 129.3225 -27.8125 128.3125 C-28.73482422 128.745625 -28.73482422 128.745625 -29.67578125 129.1875 C-30.48402344 129.55875 -31.29226562 129.93 -32.125 130.3125 C-32.92550781 130.68375 -33.72601563 131.055 -34.55078125 131.4375 C-36.8125 132.3125 -36.8125 132.3125 -39.8125 132.3125 C-40.1425 133.3025 -40.4725 134.2925 -40.8125 135.3125 C-49.73492839 140.01199863 -59.81252198 142.04074412 -69.8125 140.3125 C-73.67703742 137.91605501 -75.46824378 135.74744628 -77 131.5 C-77.47566406 130.18515625 -77.47566406 130.18515625 -77.9609375 128.84375 C-78.24195312 128.0084375 -78.52296875 127.173125 -78.8125 126.3125 C-79.05226563 125.6421875 -79.29203125 124.971875 -79.5390625 124.28125 C-80.73551441 120.64403618 -81.51915609 117.8206264 -79.8125 114.3125 C-77.83343786 113.14325103 -75.86112029 112.24453376 -73.72265625 111.40234375 C-71.34264732 110.04442455 -71.00992497 108.7214373 -69.8125 106.3125 C-65.98709764 103.66098721 -62.69544189 104.29151787 -58.26953125 104.81640625 C-55.8125 105.3125 -55.8125 105.3125 -52.625 106.9375 C-48.95067 108.73383911 -46.73180471 108.21695493 -42.8125 107.3125 C-40.6560566 106.50214132 -40.6560566 106.50214132 -40 104.4375 C-38.4153455 101.60180248 -36.71802193 100.69608187 -33.8125 99.3125 C-32.4925 99.3125 -31.1725 99.3125 -29.8125 99.3125 C-26.15728215 96.48176738 -24.72381716 93.3080883 -23.0625 89.0625 C-22.63453125 87.98484375 -22.2065625 86.9071875 -21.765625 85.796875 C-21.45109375 84.97703125 -21.1365625 84.1571875 -20.8125 83.3125 C-21.73675781 83.19261719 -22.66101562 83.07273437 -23.61328125 82.94921875 C-28.85424045 81.90614628 -31.737004 78.88989413 -34.6875 74.5625 C-36.54918746 69.18429179 -36.54918471 64.52255412 -34.75 59.125 C-32.28689182 55.54952038 -29.40841645 52.75599022 -25.8125 50.3125 C-25.1525 50.3125 -24.4925 50.3125 -23.8125 50.3125 C-23.83868408 49.03608643 -23.86486816 47.75967285 -23.8918457 46.44458008 C-23.98245416 41.7017576 -24.03978827 36.95901138 -24.0871582 32.21557617 C-24.11227806 30.16401294 -24.14638036 28.11253899 -24.18969727 26.0612793 C-24.25046002 23.10963909 -24.27873492 20.1591835 -24.30078125 17.20703125 C-24.32658768 16.29226517 -24.3523941 15.37749908 -24.37898254 14.43501282 C-24.38090508 10.05436358 -24.27631127 7.95660352 -21.65698242 4.3190918 C-14.85820368 -0.47699116 -8.01074646 -0.03534953 0 0 Z " fill="#BA7859" transform="translate(82.8125,2.6875)"/>
<path d="M0 0 C1.96680807 0.28648128 3.9457859 0.48798199 5.92529297 0.66674805 C8.37841797 1.34643555 8.37841797 1.34643555 9.83935547 3.3425293 C10.14099609 4.14819336 10.44263672 4.95385742 10.75341797 5.78393555 C11.07052734 6.58702148 11.38763672 7.39010742 11.71435547 8.2175293 C12.37841797 10.34643555 12.37841797 10.34643555 12.37841797 12.34643555 C12.94689453 11.90170898 13.51537109 11.45698242 14.10107422 10.9987793 C20.38098489 6.3963072 20.38098489 6.3963072 25.12841797 6.15893555 C29.20060247 7.64684912 30.93965992 8.72524936 33.37841797 12.34643555 C34.56722879 20.26224607 32.35621903 28.14436279 30.50341797 35.78393555 C30.23400391 36.95375977 29.96458984 38.12358398 29.68701172 39.32885742 C27.65359933 47.9336635 27.65359933 47.9336635 25.37841797 51.34643555 C24.91877447 53.14352737 24.53286576 54.96005532 24.19482422 56.78393555 C23.98921875 57.84354492 23.78361328 58.9031543 23.57177734 59.99487305 C23.15133749 62.22854112 22.73466726 64.46292206 22.32177734 66.69799805 C22.11488281 67.75760742 21.90798828 68.8172168 21.69482422 69.90893555 C21.42327515 71.36493164 21.42327515 71.36493164 21.14624023 72.8503418 C20.31992995 75.53657275 19.60972843 76.67269377 17.37841797 78.34643555 C14.81591797 78.72143555 14.81591797 78.72143555 12.37841797 78.34643555 C9.08693395 73.40920951 10.81176978 68.21636593 11.92138672 62.59643555 C12.53696002 59.8361578 13.19709703 57.0911856 13.87841797 54.34643555 C14.10400391 53.40670898 14.32958984 52.46698242 14.56201172 51.4987793 C16.22812035 44.64703078 16.22812035 44.64703078 17.37841797 42.34643555 C16.81316406 42.48718506 16.24791016 42.62793457 15.66552734 42.77294922 C8.37064986 44.42683381 1.34046156 44.69406422 -6.12158203 44.65893555 C-7.35465088 44.654021 -8.58771973 44.64910645 -9.8581543 44.64404297 C-25.03668873 44.45062898 -37.53502338 42.01356542 -51.62158203 36.34643555 C-51.6111084 37.27504395 -51.60063477 38.20365234 -51.58984375 39.16040039 C-51.55578999 42.60069245 -51.5306971 46.04080581 -51.51171875 49.48120117 C-51.5016516 50.97113874 -51.48799686 52.46105652 -51.47070312 53.95092773 C-51.4464855 56.09062583 -51.43510639 58.23006308 -51.42626953 60.36987305 C-51.4157959 61.65812988 -51.40532227 62.94638672 -51.39453125 64.27368164 C-51.62158203 67.34643555 -51.62158203 67.34643555 -53.62158203 69.34643555 C-56.62158203 69.65893555 -56.62158203 69.65893555 -59.62158203 69.34643555 C-62.08763945 65.64734941 -61.85100121 62.9203302 -61.75830078 58.65112305 C-61.7491716 57.86470428 -61.74004242 57.07828552 -61.7306366 56.26803589 C-61.71048899 54.54473234 -61.68646921 52.82147088 -61.65911865 51.0982666 C-61.62058806 48.2735668 -61.60731455 45.44970179 -61.60058594 42.62475586 C-61.58695415 37.6008967 -61.53687796 32.57833457 -61.46899414 27.55493164 C-61.44543656 25.47428654 -61.43133266 23.39351583 -61.42602539 21.31274414 C-61.41678476 18.26333641 -61.37601405 15.21577112 -61.32861328 12.16674805 C-61.33254593 11.23766632 -61.33647858 10.30858459 -61.3405304 9.35134888 C-61.19595979 3.00306475 -61.19595979 3.00306475 -58.38989258 -0.20483398 C-42.99125477 -8.26335032 -16.4989214 -2.49743332 0 0 Z " fill="#3D3E41" transform="translate(120.62158203125,5.653564453125)"/>
<path d="M0 0 C4.15559287 0.36938603 6.30616025 1.76331131 9.77734375 4.046875 C10.92310911 4.77875226 12.0689418 5.51052412 13.21484375 6.2421875 C14.99396987 7.41196292 16.76837305 8.5891932 18.52734375 9.7890625 C21.29900429 11.58321776 22.82934193 12.36494191 26.15234375 11.921875 C29.24044985 10.45530324 29.24044985 10.45530324 31.41015625 8.77734375 C39.10076687 3.35838214 45.3635465 3.9803514 54.33984375 5.296875 C51.70211392 8.29555733 48.57826787 10.03871315 45.15234375 12.046875 C43.98581192 12.76684768 42.82174427 13.490828 41.66015625 14.21875 C39.69534444 15.44849104 37.71587001 16.6560765 35.70703125 17.8125 C33.22611307 19.50201417 31.84513059 20.6847596 30.33984375 23.296875 C29.16275367 31.69701781 30.40655118 39.89724185 31.33984375 48.296875 C38.26984375 48.956875 45.19984375 49.616875 52.33984375 50.296875 C53.18443451 54.51982878 53.160816 56.77851081 52.63671875 60.87109375 C52.53875 61.67160156 52.44078125 62.47210938 52.33984375 63.296875 C52.200625 64.29332031 52.06140625 65.28976563 51.91796875 66.31640625 C51.49103732 71.60910032 51.34324237 74.94072917 54.5703125 79.33203125 C57.28230917 82.18179548 57.28230917 82.18179548 60.15234375 84.6640625 C62.33984375 87.296875 62.33984375 87.296875 62.33984375 94.296875 C50.45984375 94.296875 38.57984375 94.296875 26.33984375 94.296875 C26.33984375 82.416875 26.33984375 70.536875 26.33984375 58.296875 C25.01984375 58.296875 23.69984375 58.296875 22.33984375 58.296875 C22.33984375 70.176875 22.33984375 82.056875 22.33984375 94.296875 C10.45984375 94.296875 -1.42015625 94.296875 -13.66015625 94.296875 C-13.66015625 87.296875 -13.66015625 87.296875 -12.234375 85.22265625 C-11.61175781 84.69027344 -10.98914062 84.15789062 -10.34765625 83.609375 C-5.31011877 79.34458671 -5.31011877 79.34458671 -3.296875 73.2734375 C-3.31363281 72.16742188 -3.33039063 71.06140625 -3.34765625 69.921875 C-3.35152344 68.82101563 -3.35539062 67.72015625 -3.359375 66.5859375 C-3.53373207 63.28672216 -3.53373207 63.28672216 -4.6796875 60.2578125 C-5.7256332 57.09913983 -5.81747004 54.60046452 -5.66015625 51.296875 C-2.74413016 50.79287049 0.17256467 50.29352834 3.08984375 49.796875 C3.91484375 49.65378906 4.73984375 49.51070312 5.58984375 49.36328125 C6.3890625 49.22792969 7.18828125 49.09257812 8.01171875 48.953125 C8.74487305 48.82744141 9.47802734 48.70175781 10.23339844 48.57226562 C12.33984375 48.296875 12.33984375 48.296875 16.33984375 48.296875 C16.68726248 45.63133473 17.02078801 42.96585547 17.33984375 40.296875 C17.42556641 39.60625977 17.51128906 38.91564453 17.59960938 38.20410156 C18.63970862 28.78152504 18.63970862 28.78152504 15.30859375 20.21875 C9.16357262 14.46220721 1.76233907 10.20890569 -5.66015625 6.296875 C-3.38351279 0.37760202 -3.38351279 0.37760202 0 0 Z " fill="#696CC1" transform="translate(71.66015625,97.703125)"/>
<path d="M0 0 C0.66 0 1.32 0 2 0 C2.48919922 1.03060547 2.48919922 1.03060547 2.98828125 2.08203125 C3.42527344 2.98308594 3.86226562 3.88414063 4.3125 4.8125 C4.74175781 5.70582031 5.17101562 6.59914063 5.61328125 7.51953125 C7.32490268 10.58116395 8.86237401 12.43118701 12 14 C14.19484216 15.09742108 15.50321995 16.05418594 17 18 C17 19.32 17 20.64 17 22 C19.07097697 24.04331967 19.07097697 24.04331967 22 25 C24.93744278 24.30883699 27.31419929 23.34290035 30 22 C39.70400773 21.0604056 39.70400773 21.0604056 43.5 23.8125 C43.995 24.534375 44.49 25.25625 45 26 C47.59072324 28.94400369 50.45789478 30.34701756 54 32 C53.51061677 39.4630943 52.49302866 47.84859944 47.5078125 53.7734375 C43.46969822 57.2490284 39.79624351 58.34773604 34.515625 58.2890625 C25.98855589 57.309244 16.03860208 54.28320368 10 48 C7.78587867 46.4035165 5.56899368 44.84557604 3.3125 43.3125 C1.229375 41.889375 -0.85375 40.46625 -3 39 C-3.66 44.28 -4.32 49.56 -5 55 C-28.18181818 53.40909091 -28.18181818 53.40909091 -31 52 C-33.53523582 43.97175324 -34.48094486 35.30690912 -33 27 C-28.33481727 19.63612412 -19.34016961 15.6351083 -11.80859375 11.62890625 C-8.91961818 10.29702775 -8.91961818 10.29702775 -8 8 C-7.21625 7.566875 -6.4325 7.13375 -5.625 6.6875 C-2.67109615 4.78856181 -1.70586459 3.00557094 0 0 Z " fill="#E49B5D" transform="translate(134,94)"/>
<path d="M0 0 C0.33 0 0.66 0 1 0 C1 2.97 1 5.94 1 9 C3.31 9 5.62 9 8 9 C6.125 13.75 6.125 13.75 5 16 C5.73863281 16.27714844 6.47726563 16.55429688 7.23828125 16.83984375 C11.58623384 18.66635283 15.18757202 21.25122747 19 24 C19.92554687 24.59296875 20.85109375 25.1859375 21.8046875 25.796875 C28.43288596 30.64128068 28.43288596 30.64128068 29.46630859 34.93945312 C30.33246474 42.89283658 29.10103722 50.34499144 27 58 C24.27172635 58.50534727 21.54255306 59.00443845 18.8125 59.5 C18.04357422 59.64308594 17.27464844 59.78617188 16.48242188 59.93359375 C12.60578227 60.63238715 8.958529 61.19039017 5 61 C4.67 61.99 4.34 62.98 4 64 C4 63.01 4 62.02 4 61 C3.34 61 2.68 61 2 61 C0.66666667 55.66666667 -0.66666667 50.33333333 -2 45 C-2.66 45 -3.32 45 -4 45 C-4.66 44.34 -5.32 43.68 -6 43 C-6.61488281 43.28875 -7.22976562 43.5775 -7.86328125 43.875 C-8.67152344 44.24625 -9.47976562 44.6175 -10.3125 45 C-11.11300781 45.37125 -11.91351563 45.7425 -12.73828125 46.125 C-15 47 -15 47 -18 47 C-18.33 47.99 -18.66 48.98 -19 50 C-27.92242839 54.69949863 -38.00002198 56.72824412 -48 55 C-51.86453742 52.60355501 -53.65574378 50.43494628 -55.1875 46.1875 C-55.50460938 45.3109375 -55.82171875 44.434375 -56.1484375 43.53125 C-56.42945313 42.6959375 -56.71046875 41.860625 -57 41 C-57.35964844 39.99453125 -57.35964844 39.99453125 -57.7265625 38.96875 C-58.92301441 35.33153618 -59.70665609 32.5081264 -58 29 C-56.02093786 27.83075103 -54.04862029 26.93203376 -51.91015625 26.08984375 C-49.53014732 24.73192455 -49.19742497 23.4089373 -48 21 C-44.17459764 18.34848721 -40.88294189 18.97901787 -36.45703125 19.50390625 C-34 20 -34 20 -30.8125 21.625 C-27.13817 23.42133911 -24.91930471 22.90445493 -21 22 C-18.8435566 21.18964132 -18.8435566 21.18964132 -18.1875 19.125 C-16.6028455 16.28930248 -14.90552193 15.38358187 -12 14 C-10.68 14 -9.36 14 -8 14 C-3.25796458 10.73985065 -1.86457994 5.1970207 0 0 Z " fill="#E49C60" transform="translate(61,88)"/>
<path d="M0 0 C2.64 1.32 5.28 2.64 8 4 C11.34084905 3.47158931 11.34084905 3.47158931 14 2 C17.92972653 0.03513673 22.71537523 0.52958126 27 1 C29.5 2.8125 29.5 2.8125 31 5 C33.59072324 7.94400369 36.45789478 9.34701756 40 11 C39.51061677 18.4630943 38.49302866 26.84859944 33.5078125 32.7734375 C29.46969822 36.2490284 25.79624351 37.34773604 20.515625 37.2890625 C12.04157225 36.31533594 1.96286675 33.3099119 -4 27 C-6.83838727 24.93571835 -9.71681774 22.93637826 -12.6015625 20.9375 C-15 19 -15 19 -16 16 C-10.72 10.72 -5.44 5.44 0 0 Z " fill="#B57759" transform="translate(148,115)"/>
<path d="M0 0 C0.94875 0.53625 1.8975 1.0725 2.875 1.625 C7.84186389 3.81042011 12.72472119 2.70849214 18 2 C19.27118733 4.06228254 20.54195965 6.12481891 21.8125 8.1875 C22.16892578 8.76564453 22.52535156 9.34378906 22.89257812 9.93945312 C23.93055175 11.62496993 24.96531853 13.31246025 26 15 C26.60199219 15.90363281 27.20398437 16.80726562 27.82421875 17.73828125 C28.21222656 18.48464844 28.60023437 19.23101562 29 20 C28 23 28 23 26.0390625 24.16796875 C25.24242187 24.50441406 24.44578125 24.84085938 23.625 25.1875 C22.83351562 25.53167969 22.04203125 25.87585938 21.2265625 26.23046875 C19 27 19 27 16 27 C15.505 28.485 15.505 28.485 15 30 C6.07757161 34.69949863 -4.00002198 36.72824412 -14 35 C-17.86453742 32.60355501 -19.65574378 30.43494628 -21.1875 26.1875 C-21.50460938 25.3109375 -21.82171875 24.434375 -22.1484375 23.53125 C-22.42945313 22.6959375 -22.71046875 21.860625 -23 21 C-23.23976563 20.3296875 -23.47953125 19.659375 -23.7265625 18.96875 C-24.92301441 15.33153618 -25.70665609 12.5081264 -24 9 C-22.02093786 7.83075103 -20.04862029 6.93203376 -17.91015625 6.08984375 C-15.53014732 4.73192455 -15.19742497 3.4089373 -14 1 C-9.62944632 -2.02937519 -4.96331384 -1.01016163 0 0 Z " fill="#B57658" transform="translate(27,108)"/>
<path d="M0 0 C4.15559287 0.36938603 6.30616025 1.76331131 9.77734375 4.046875 C10.92310911 4.77875226 12.0689418 5.51052412 13.21484375 6.2421875 C14.99396987 7.41196292 16.76837305 8.5891932 18.52734375 9.7890625 C21.29900429 11.58321776 22.82934193 12.36494191 26.15234375 11.921875 C29.24044985 10.45530324 29.24044985 10.45530324 31.41015625 8.77734375 C39.10076687 3.35838214 45.3635465 3.9803514 54.33984375 5.296875 C51.70211392 8.29555733 48.57826787 10.03871315 45.15234375 12.046875 C43.98581192 12.76684768 42.82174427 13.490828 41.66015625 14.21875 C39.69534444 15.44849104 37.71587001 16.6560765 35.70703125 17.8125 C33.22401826 19.50344075 31.84465201 20.68116418 30.33984375 23.296875 C29.58477287 28.73681749 29.84682339 33.84041369 30.33984375 39.296875 C30.42363281 40.22628906 30.50742188 41.15570313 30.59375 42.11328125 C30.78925162 43.84797021 31.05285723 45.57495589 31.33984375 47.296875 C26.38984375 47.296875 21.43984375 47.296875 16.33984375 47.296875 C16.66984375 44.986875 16.99984375 42.676875 17.33984375 40.296875 C18.77770042 29.81612198 18.77770042 29.81612198 15.30859375 20.21484375 C9.15933586 14.46316719 1.76235995 10.2089167 -5.66015625 6.296875 C-3.38351279 0.37760202 -3.38351279 0.37760202 0 0 Z " fill="#A3B3C0" transform="translate(71.66015625,97.703125)"/>
<path d="M0 0 C1.96680807 0.28648128 3.9457859 0.48798199 5.92529297 0.66674805 C8.37841797 1.34643555 8.37841797 1.34643555 9.83935547 3.3425293 C10.14099609 4.14819336 10.44263672 4.95385742 10.75341797 5.78393555 C11.07052734 6.58702148 11.38763672 7.39010742 11.71435547 8.2175293 C12.37841797 10.34643555 12.37841797 10.34643555 12.37841797 12.34643555 C11.49669922 12.23686523 10.61498047 12.12729492 9.70654297 12.0144043 C-0.70651725 10.76997536 -11.14412388 9.81766814 -21.59240723 8.9269104 C-23.1797142 8.79124985 -24.76687727 8.65389361 -26.35388184 8.51473999 C-42.85790033 6.19988141 -42.85790033 6.19988141 -58.62158203 9.34643555 C-59.28158203 10.00643555 -59.94158203 10.66643555 -60.62158203 11.34643555 C-60.9151164 8.29367814 -61.0415418 5.3911439 -60.62158203 2.34643555 C-49.59423734 -10.2562441 -14.6645706 -2.21976858 0 0 Z " fill="#52565D" transform="translate(120.62158203125,5.653564453125)"/>
<path d="M0 0 C0.33 0 0.66 0 1 0 C1 1.65 1 3.3 1 5 C1.70495605 4.94239502 2.40991211 4.88479004 3.13623047 4.82543945 C24.46339131 3.30756044 24.46339131 3.30756044 29.88671875 7.203125 C35.12563303 12.80149763 36 15.0453567 36 23 C24.12 23 12.24 23 0 23 C0 15.41 0 7.82 0 0 Z " fill="#EEEEEF" transform="translate(98,169)"/>
<path d="M0 0 C0.33 0 0.66 0 1 0 C1 7.59 1 15.18 1 23 C-10.88 23 -22.76 23 -35 23 C-35 16 -35 16 -33.57421875 13.92578125 C-32.95160156 13.39339844 -32.32898437 12.86101562 -31.6875 12.3125 C-28.90719186 9.88269515 -28.90719186 9.88269515 -26.74609375 6.91967773 C-25 5 -25 5 -22.36450195 4.54589844 C-21.33284912 4.5668457 -20.30119629 4.58779297 -19.23828125 4.609375 C-18.12001953 4.62226563 -17.00175781 4.63515625 -15.84960938 4.6484375 C-14.68236328 4.68195313 -13.51511719 4.71546875 -12.3125 4.75 C-11.13365234 4.76804688 -9.95480469 4.78609375 -8.74023438 4.8046875 C-5.82601074 4.85188141 -2.91340969 4.91770923 0 5 C0 3.35 0 1.7 0 0 Z " fill="#EEEEEF" transform="translate(93,169)"/>
<path d="M0 0 C4.49797113 1.68673918 8.72886302 3.81673892 13 6 C13.66 4.02 14.32 2.04 15 0 C15.66 0 16.32 0 17 0 C18.625 2.5 18.625 2.5 20 5 C20.7425 4.690625 21.485 4.38125 22.25 4.0625 C24.50692176 3.1905075 26.6450153 2.52332993 29 2 C26.78071806 4.90802461 25.07030857 6.95312762 22 9 C21.74726946 11.6296011 21.67189257 14.00248401 21.75 16.625 C21.76095703 17.346875 21.77191406 18.06875 21.78320312 18.8125 C21.88256984 23.59938346 22.2120965 28.27257901 23 33 C18.05 33 13.1 33 8 33 C8.33 30.69 8.66 28.38 9 26 C10.39829779 15.59127482 10.39829779 15.59127482 6.9921875 6.15234375 C4.74988243 4.21580755 2.4970788 2.58544686 0 1 C0 0.67 0 0.34 0 0 Z " fill="#E4F0F9" transform="translate(80,112)"/>
<path d="M0 0 C0.66 0 1.32 0 2 0 C2.32613281 0.68707031 2.65226563 1.37414062 2.98828125 2.08203125 C3.42527344 2.98308594 3.86226562 3.88414063 4.3125 4.8125 C4.74175781 5.70582031 5.17101562 6.59914063 5.61328125 7.51953125 C7.32490268 10.58116395 8.86237401 12.43118701 12 14 C14.11987322 15.05993661 15.41569769 16.25726746 17 18 C15.70050961 20.944256 14.45943057 22.7021504 11.9375 24.6875 C8.83743074 27.24473013 5.92946534 29.93277696 3.0625 32.75 C2.29035156 33.50796875 1.51820313 34.2659375 0.72265625 35.046875 C-1.22049093 36.81594409 -1.22049093 36.81594409 -1 39 C-1.66 39 -2.32 39 -3 39 C-2.93941406 37.92105469 -2.87882813 36.84210938 -2.81640625 35.73046875 C-2.75646484 34.65732422 -2.75646484 34.65732422 -2.6953125 33.5625 C-2.60596831 31.96481574 -2.51611566 30.36715983 -2.42578125 28.76953125 C-2.18049506 24.39526085 -1.95014972 20.02093163 -1.74609375 15.64453125 C-1.70476318 14.78384033 -1.66343262 13.92314941 -1.62084961 13.03637695 C-1.54119088 11.36450909 -1.46509727 9.692467 -1.39282227 8.02026367 C-1.11181428 2.22362857 -1.11181428 2.22362857 0 0 Z " fill="#C4D3E1" transform="translate(134,94)"/>
<path d="M0 0 C2.79424631 1.0531345 3.81363878 1.81363878 6 4 C6.875 7.75 6.875 7.75 7 11 C5.43789839 11.05459773 3.87522911 11.09306101 2.3125 11.125 C1.00732422 11.15980469 1.00732422 11.15980469 -0.32421875 11.1953125 C-3 11 -3 11 -5.36328125 9.9921875 C-8.85504329 8.67825038 -11.78359022 8.88107489 -15.5 9 C-20.24842946 9.15194974 -23.70238904 9.11574693 -28 7 C-27.79803569 3.36464239 -27.21677989 2.2005214 -24.5 -0.3125 C-16.94060045 -3.9572105 -7.90881257 -1.96596903 0 0 Z " fill="#3F3F41" transform="translate(109,80)"/>
<path d="M0 0 C0.33 0 0.66 0 1 0 C0.97679688 1.12792969 0.95359375 2.25585938 0.9296875 3.41796875 C0.76046405 15.73294066 1.63653238 27.76531289 3 40 C-1.32957196 38.13624365 -2.55591883 35.5248478 -4.4375 31.375 C-8.74220085 21.52182608 -8.74220085 21.52182608 -16 14 C-14.54773858 10.17131081 -12.66681987 8.7461047 -9 7 C-7.68 7 -6.36 7 -5 7 C-2.26533528 4.73413495 -1.1328469 3.3985407 0 0 Z " fill="#C3D4E2" transform="translate(58,95)"/>
<path d="M0 0 C9.04028922 -0.1723784 17.98865693 0.3668316 27 1 C27 4.63 27 8.26 27 12 C3.86666667 10.43333333 3.86666667 10.43333333 1 9 C0.5859375 6.93359375 0.5859375 6.93359375 0.375 4.4375 C0.30023438 3.61121094 0.22546875 2.78492188 0.1484375 1.93359375 C0.09945312 1.29550781 0.05046875 0.65742188 0 0 Z " fill="#D4894A" transform="translate(102,137)"/>
<path d="M0 0 C0.125 6.75 0.125 6.75 -1 9 C-8.38652064 11.55687253 -16.29855573 11.21728213 -24 11 C-24.50181191 9.52144705 -25.00140076 8.04213942 -25.5 6.5625 C-25.7784375 5.73878906 -26.056875 4.91507813 -26.34375 4.06640625 C-27 2 -27 2 -27 1 C-17.97746114 0.16069406 -9.0598059 -0.12224626 0 0 Z " fill="#D48A4A" transform="translate(89,137)"/>
<path d="M0 0 C7.92 0 15.84 0 24 0 C24 3.3 24 6.6 24 10 C16.08 10 8.16 10 0 10 C0 6.7 0 3.4 0 0 Z " fill="#4E4FA8" transform="translate(99,164)"/>
<path d="M0 0 C7.92 0 15.84 0 24 0 C24 3.3 24 6.6 24 10 C16.08 10 8.16 10 0 10 C0 6.7 0 3.4 0 0 Z " fill="#4E4FA8" transform="translate(69,164)"/>
<path d="M0 0 C11.88 0 23.76 0 36 0 C36 1.98 36 3.96 36 6 C24.12 6 12.24 6 0 6 C0 4.02 0 2.04 0 0 Z " fill="#C88A56" transform="translate(98,186)"/>
<path d="M0 0 C11.88 0 23.76 0 36 0 C36 1.98 36 3.96 36 6 C24.12 6 12.24 6 0 6 C0 4.02 0 2.04 0 0 Z " fill="#C88A56" transform="translate(58,186)"/>
<path d="M0 0 C1.45599609 0.14501953 1.45599609 0.14501953 2.94140625 0.29296875 C5.4375 0.8125 5.4375 0.8125 7.4375 2.8125 C7.84215316 5.89798033 8.08254806 7.85320058 7.4375 10.8125 C4.53481471 14.12985461 2.64376446 15.57124711 -1.6875 16.4375 C-4.5625 15.8125 -4.5625 15.8125 -6.9375 13.8125 C-9.161084 9.70742185 -9.0859603 7.44886264 -8.5625 2.8125 C-6.18446954 -0.7230486 -4.02734603 -0.45582478 0 0 Z " fill="#F6F4F3" transform="translate(84.5625,59.1875)"/>
<path d="M0 0 C12.18736606 0.45253984 23.98870677 1.9036272 36 4 C32.94021323 6.51031802 29.90302727 8.84995912 26.5 10.875 C25.7678125 11.32617188 25.035625 11.77734375 24.28125 12.2421875 C22 13 22 13 19.734375 12.4140625 C16.03691835 10.5019492 12.3774038 8.54204567 8.75 6.5 C8.0178125 6.09652344 7.285625 5.69304687 6.53125 5.27734375 C5.83515625 4.88675781 5.1390625 4.49617188 4.421875 4.09375 C3.78862305 3.73990234 3.15537109 3.38605469 2.50292969 3.02148438 C1 2 1 2 0 0 Z " fill="#7E492F" transform="translate(75,98)"/>
<path d="M0 0 C2.4609375 0.6875 2.4609375 0.6875 4.4609375 3.6875 C4.96929042 7.5848724 4.79055933 9.19306726 2.5859375 12.5 C0.05246926 15.10798201 -0.81164057 15.6084324 -4.4140625 16 C-7.5390625 15.6875 -7.5390625 15.6875 -9.8515625 14.125 C-12.10737516 10.86660394 -12.5390625 8.64274221 -12.5390625 4.6875 C-9.95450436 -1.51543954 -5.8500559 -0.62735184 0 0 Z " fill="#F7F3F2" transform="translate(121.5390625,63.3125)"/>
<path d="M0 0 C2.9375 1.9375 2.9375 1.9375 5 5 C5.79784439 10.13612327 5.61707348 14.44902483 3 19 C2.9175 17.906875 2.835 16.81375 2.75 15.6875 C2.36353917 12.07601792 2.36353917 12.07601792 0.40625 10.375 C-2.73830875 8.57810929 -5.70115576 8.00255305 -9.25 7.3125 C-10.51328125 7.06113281 -11.7765625 6.80976563 -13.078125 6.55078125 C-14.04234375 6.36902344 -15.0065625 6.18726563 -16 6 C-15.21367187 5.37738281 -14.42734375 4.75476563 -13.6171875 4.11328125 C-11.06493625 2.1166083 -11.06493625 2.1166083 -9.125 0.1875 C-5.77542045 -1.68432387 -3.61460611 -1.01462628 0 0 Z " fill="#5C6065" transform="translate(149,13)"/>
<path d="M0 0 C0.66 0 1.32 0 2 0 C2.32613281 0.66386719 2.65226563 1.32773438 2.98828125 2.01171875 C5.18009471 6.44060436 7.35262752 10.81993819 10 15 C8.73113036 16.12721436 7.45982438 17.25168658 6.1875 18.375 C5.47980469 19.00148438 4.77210938 19.62796875 4.04296875 20.2734375 C2 22 2 22 -1 24 C-1.02893932 20.37501666 -1.04677792 16.75006287 -1.0625 13.125 C-1.07087891 12.09246094 -1.07925781 11.05992188 -1.08789062 9.99609375 C-1.09111328 9.00996094 -1.09433594 8.02382812 -1.09765625 7.0078125 C-1.10289307 6.09660645 -1.10812988 5.18540039 -1.11352539 4.24658203 C-1 2 -1 2 0 0 Z " fill="#E7F0F7" transform="translate(134,94)"/>
<path d="M0 0 C4.49797113 1.68673918 8.72886302 3.81673892 13 6 C13.66 4.02 14.32 2.04 15 0 C15.66 0 16.32 0 17 0 C18.625 2.5 18.625 2.5 20 5 C20.7425 4.690625 21.485 4.38125 22.25 4.0625 C24.50692176 3.1905075 26.6450153 2.52332993 29 2 C27.68962066 3.68477344 26.35156675 5.34808509 25 7 C24.46375 7.763125 23.9275 8.52625 23.375 9.3125 C19.57790758 12.01043409 15.51152208 11.3099519 11 11 C11 13.64 11 16.28 11 19 C10.67 19 10.34 19 10 19 C10.03222656 18.3709375 10.06445312 17.741875 10.09765625 17.09375 C10.03849873 12.7292398 9.84609458 9.9849818 6.9296875 6.58984375 C4.67467232 4.64233064 2.35554529 2.82257343 0 1 C0 0.67 0 0.34 0 0 Z " fill="#D6DEE4" transform="translate(80,112)"/>
<path d="M0 0 C6.93 0.33 13.86 0.66 21 1 C21 2.98 21 4.96 21 7 C13.58165418 7.09377123 6.33763707 7.17402193 -1 6 C-0.67 4.02 -0.34 2.04 0 0 Z " fill="#464445" transform="translate(109,57)"/>
<path d="M0 0 C3.63 0 7.26 0 11 0 C13 5.625 13 5.625 13 9 C8.05 9 3.1 9 -2 9 C-1.34 6.03 -0.68 3.06 0 0 Z " fill="#BED1E1" transform="translate(90,136)"/>
<path d="M0 0 C7.34918342 -0.43230491 13.90215087 1.18225815 21 3 C21 4.65 21 6.3 21 8 C13.86606248 7.48462048 6.98187183 6.55994099 0 5 C0 3.35 0 1.7 0 0 Z " fill="#404042" transform="translate(75,53)"/>
<path d="M0 0 C3.78517206 0.25662183 5.01775858 0.68704824 7.6875 3.25 C6.8125 8.125 6.8125 8.125 5.6875 9.25 C-1.50639313 9.71412214 -1.50639313 9.71412214 -4.375 8.0625 C-5.7070522 5.48719907 -5.16602401 3.95282604 -4.3125 1.25 C-3.3125 0.25 -3.3125 0.25 0 0 Z " fill="#945435" transform="translate(99.3125,69.75)"/>
<path d="M0 0 C5.61 0.33 11.22 0.66 17 1 C15.68 1.99 14.36 2.98 13 4 C15.27771895 6.80844958 16.36197888 7.91735478 20.015625 8.390625 C21.61664063 8.32101563 21.61664063 8.32101563 23.25 8.25 C24.32765625 8.21390625 25.4053125 8.1778125 26.515625 8.140625 C27.33546875 8.09421875 28.1553125 8.0478125 29 8 C23.65914018 12.59907373 23.65914018 12.59907373 20 13 C17.81762695 12.13549805 17.81762695 12.13549805 15.48828125 10.76171875 C14.22854492 10.02598633 14.22854492 10.02598633 12.94335938 9.27539062 C12.07517578 8.75138672 11.20699219 8.22738281 10.3125 7.6875 C9.43271484 7.17509766 8.55292969 6.66269531 7.64648438 6.13476562 C1.14501232 2.29002463 1.14501232 2.29002463 0 0 Z " fill="#885138" transform="translate(75,98)"/>
<path d="M0 0 C3.02938429 4.54407644 4.68765498 7.38415097 4 13 C1.83476695 16.40250907 -0.16409694 18.63887311 -4 20 C-4.99 20 -5.98 20 -7 20 C-7 18.68 -7 17.36 -7 16 C-6.37609375 15.56042969 -5.7521875 15.12085937 -5.109375 14.66796875 C-2.0976166 12.28644868 -1.98385514 10.01846847 -1.25 6.3125 C-1.00765625 5.13300781 -0.7653125 3.95351562 -0.515625 2.73828125 C-0.34546875 1.83464844 -0.1753125 0.93101563 0 0 Z " fill="#9F5C3E" transform="translate(143,68)"/>
<path d="M0 0 C0.33 0 0.66 0 1 0 C1.66 6.93 2.32 13.86 3 21 C-1.5708422 18.7145789 -2.13611031 17.51788833 -4.3125 13.0625 C-5.11107422 11.47115234 -5.11107422 11.47115234 -5.92578125 9.84765625 C-7 7 -7 7 -6 4 C-4.35 4 -2.7 4 -1 4 C-0.67 2.68 -0.34 1.36 0 0 Z " fill="#B7C3CD" transform="translate(58,114)"/>
<path d="M0 0 C0.06058594 0.77085938 0.12117188 1.54171875 0.18359375 2.3359375 C0.26738281 3.33882813 0.35117187 4.34171875 0.4375 5.375 C0.51871094 6.37273437 0.59992187 7.37046875 0.68359375 8.3984375 C0.84965626 10.97927613 0.84965626 10.97927613 2 13 C4.52733235 13.65555119 4.52733235 13.65555119 7 14 C5.68 14.33 4.36 14.66 3 15 C3 15.99 3 16.98 3 18 C-0.37758771 16.81327999 -2.74844294 15.82091632 -5 13 C-5.62251646 9.95471679 -5.51913686 7.05959383 -5 4 C-1.97560976 0 -1.97560976 0 0 0 Z " fill="#9F5C3E" transform="translate(59,61)"/>
<path d="M0 0 C2.375 0.75 2.375 0.75 3.375 1.75 C3.625 5.1875 3.625 5.1875 3.375 8.75 C0.375 10.75 0.375 10.75 -2.3125 10.375 C-3.075625 10.16875 -3.83875 9.9625 -4.625 9.75 C-5.95578101 3.33805513 -5.95578101 3.33805513 -4.5 0.75 C-2.625 -0.25 -2.625 -0.25 0 0 Z " fill="#444649" transform="translate(86.625,61.25)"/>
<path d="M0 0 C0.94875 0.04125 1.8975 0.0825 2.875 0.125 C4.25625018 2.88750036 4.06579306 5.07231099 3.875 8.125 C1.875 10.125 1.875 10.125 -0.625 10.375 C-3.125 10.125 -3.125 10.125 -5.125 8.125 C-5.375 5.125 -5.375 5.125 -5.125 2.125 C-3.125 0.125 -3.125 0.125 0 0 Z " fill="#3F4145" transform="translate(116.125,64.875)"/>
<path d="M0 0 C0.33 0 0.66 0 1 0 C0.67 6.6 0.34 13.2 0 20 C-4.05596753 15.94403247 -5.04667653 14.07864102 -7 9 C-6.57847656 8.60167969 -6.15695313 8.20335938 -5.72265625 7.79296875 C-5.17480469 7.26316406 -4.62695312 6.73335938 -4.0625 6.1875 C-3.51722656 5.66542969 -2.97195312 5.14335938 -2.41015625 4.60546875 C-0.76480908 2.94187802 -0.76480908 2.94187802 0 0 Z " fill="#E7EFF5" transform="translate(58,95)"/>
<path d="M0 0 C0.86882813 0.09925781 1.73765625 0.19851562 2.6328125 0.30078125 C4.875 0.6875 4.875 0.6875 6.875 1.6875 C6.875 2.3475 6.875 3.0075 6.875 3.6875 C3.9134304 5.1682848 1.03993705 5.04064037 -2.25 5.25 C-3.53132813 5.33378906 -4.81265625 5.41757813 -6.1328125 5.50390625 C-7.12023437 5.56449219 -8.10765625 5.62507813 -9.125 5.6875 C-9.125 4.3675 -9.125 3.0475 -9.125 1.6875 C-5.8567333 -0.29626188 -3.76603206 -0.4665383 0 0 Z " fill="#B77F65" transform="translate(22.125,107.3125)"/>
<path d="M0 0 C0.66 0 1.32 0 2 0 C3.625 2.5 3.625 2.5 5 5 C5.7425 4.690625 6.485 4.38125 7.25 4.0625 C9.50692176 3.1905075 11.6450153 2.52332993 14 2 C11.61042731 5.24299151 9.7952131 7.50902342 6 9 C6 8.34 6 7.68 6 7 C2.37 7 -1.26 7 -5 7 C-4.01 6.67 -3.02 6.34 -2 6 C-0.77479736 2.99152582 -0.77479736 2.99152582 0 0 Z " fill="#CAD5DC" transform="translate(95,112)"/>
<path d="M0 0 C2.97 0.495 2.97 0.495 6 1 C6.99 3.97 7.98 6.94 9 10 C7.02 10 5.04 10 3 10 C2.49818809 8.52144705 1.99859924 7.04213942 1.5 5.5625 C1.2215625 4.73878906 0.943125 3.91507813 0.65625 3.06640625 C0 1 0 1 0 0 Z " fill="#C68044" transform="translate(62,138)"/>
<path d="M0 0 C-0.42152344 0.47050781 -0.84304687 0.94101563 -1.27734375 1.42578125 C-1.82519531 2.04839844 -2.37304688 2.67101562 -2.9375 3.3125 C-3.48277344 3.92738281 -4.02804688 4.54226562 -4.58984375 5.17578125 C-6.20081559 7.05241958 -6.20081559 7.05241958 -7 10 C-7.66 10 -8.32 10 -9 10 C-9.125 2.375 -9.125 2.375 -8 -1 C-4.37673261 -2.2077558 -3.35853631 -1.54311128 0 0 Z " fill="#B8C0C7" transform="translate(140,123)"/>
<path d="M0 0 C0.99 0 1.98 0 3 0 C3 3.3 3 6.6 3 10 C1.35 10 -0.3 10 -2 10 C-2.6875 8.375 -2.6875 8.375 -3 6 C-1.5625 2.75 -1.5625 2.75 0 0 Z " fill="#C48753" transform="translate(126,139)"/>
<path d="M0 0 C1.79158489 -0.02696365 3.58328473 -0.04637917 5.375 -0.0625 C6.37273437 -0.07410156 7.37046875 -0.08570312 8.3984375 -0.09765625 C11 0 11 0 13 1 C13 2.32 13 3.64 13 5 C10.61435923 4.42415568 8.33317216 3.77772405 6 3 C6 2.34 6 1.68 6 1 C4.02 1 2.04 1 0 1 C0 0.67 0 0.34 0 0 Z " fill="#B78066" transform="translate(164,116)"/>
<path d="M0 0 C1.98 0 3.96 0 6 0 C5.38125 0.53625 4.7625 1.0725 4.125 1.625 C1.7217098 4.31103023 0.93977847 6.55414562 0 10 C-0.99 10 -1.98 10 -3 10 C-2.01 6.7 -1.02 3.4 0 0 Z " fill="#CA8245" transform="translate(123,138)"/>
<path d="M0 0 C1.32 0.66 2.64 1.32 4 2 C4.44041451 7.28497409 4.44041451 7.28497409 4 10 C1.5 12.5 1.5 12.5 -1 14 C-1 13.01 -1 12.02 -1 11 C-0.34 10.67 0.32 10.34 1 10 C1.11320856 4.91696314 1.11320856 4.91696314 0 0 Z " fill="#E5E1DF" transform="translate(88,60)"/>
<path d="M0 0 C1.65 0.33 3.3 0.66 5 1 C5 1.33 5 1.66 5 2 C3.02 2.66 1.04 3.32 -1 4 C-1 4.928125 -1 5.85625 -1 6.8125 C-1 8.875 -1 10.9375 -1 13 C-1.66 12.67 -2.32 12.34 -3 12 C-3.875 8.75 -3.875 8.75 -4 5 C-2.0625 2.0625 -2.0625 2.0625 0 0 Z " fill="#E0DAD7" transform="translate(113,63)"/>
<path d="M0 0 C0.33 0 0.66 0 1 0 C1 2.64 1 5.28 1 8 C-1.64 7.67 -4.28 7.34 -7 7 C-6.67 6.01 -6.34 5.02 -6 4 C-4.35 4 -2.7 4 -1 4 C-0.67 2.68 -0.34 1.36 0 0 Z " fill="#BDC9D4" transform="translate(58,114)"/>
<path d="M0 0 C0.66 0.33 1.32 0.66 2 1 C-0.88406243 4.40843742 -2.3708265 5.86591384 -6.8125 6.8125 C-8.3903125 6.9053125 -8.3903125 6.9053125 -10 7 C-6.81404865 4.36021174 -3.69029454 1.89501612 0 0 Z " fill="#96A3AE" transform="translate(109,103)"/>
<path d="M0 0 C-0.99 1.485 -0.99 1.485 -2 3 C-5.125 3.1875 -5.125 3.1875 -8 3 C-8 1.68 -8 0.36 -8 -1 C-4.37673261 -2.2077558 -3.35853631 -1.54311128 0 0 Z " fill="#B6C8D8" transform="translate(140,123)"/>
<path d="M0 0 C1 2 1 2 0.875 4.875 C1.01423099 8.35577466 1.68414334 9.49115529 4 12 C3.01 12.495 3.01 12.495 2 13 C1.01 12.34 0.02 11.68 -1 11 C-1.328125 8.65234375 -1.328125 8.65234375 -1.25 5.9375 C-1.23453125 5.03902344 -1.2190625 4.14054687 -1.203125 3.21484375 C-1 1 -1 1 0 0 Z " fill="#BB9B8C" transform="translate(146,56)"/>
<path d="M0 0 C0.66 0.33 1.32 0.66 2 1 C1.54625 1.4125 1.0925 1.825 0.625 2.25 C-1.0922331 3.91435498 -1.0922331 3.91435498 -1.9375 6.0625 C-3.24994775 8.45578707 -4.51014367 9.00405747 -7 10 C-5.6062718 5.56541027 -3.39417765 3.12621626 0 0 Z " fill="#CC9D87" transform="translate(55,54)"/>
<path d="M0 0 C1.4540625 0.0309375 1.4540625 0.0309375 2.9375 0.0625 C2.9375 0.7225 2.9375 1.3825 2.9375 2.0625 C4.2575 2.3925 5.5775 2.7225 6.9375 3.0625 C5.47957116 3.11649736 4.02107288 3.15529177 2.5625 3.1875 C1.75039062 3.21070312 0.93828125 3.23390625 0.1015625 3.2578125 C-2.0625 3.0625 -2.0625 3.0625 -4.0625 1.0625 C-3.0625 0.0625 -3.0625 0.0625 0 0 Z " fill="#A96545" transform="translate(167.0625,116.9375)"/>
<path d="M0 0 C0 0.99 0 1.98 0 3 C-0.928125 3.433125 -1.85625 3.86625 -2.8125 4.3125 C-5.47184073 5.72038627 -7.08105905 6.76123556 -9 9 C-9 6.75 -9 6.75 -8 4 C-5.47332213 2.32801232 -2.80063432 1.14194429 0 0 Z " fill="#D3AD9A" transform="translate(11,113)"/>
<path d="M0 0 C0 0.99 0 1.98 0 3 C-2.64 3 -5.28 3 -8 3 C-8.33 2.34 -8.66 1.68 -9 1 C-5.8035914 -0.06546953 -3.34252724 -0.07427838 0 0 Z " fill="#C09A89" transform="translate(174,149)"/>
<path d="M0 0 C0.33 0 0.66 0 1 0 C0.67 3.96 0.34 7.92 0 12 C-0.33 12 -0.66 12 -1 12 C-2.42857143 3.42857143 -2.42857143 3.42857143 0 0 Z " fill="#DCAE89" transform="translate(130,131)"/>
<path d="M0 0 C0.66 0 1.32 0 2 0 C2.66 1.65 3.32 3.3 4 5 C2.02 5 0.04 5 -2 5 C-1.34 3.35 -0.68 1.7 0 0 Z " fill="#C2CED7" transform="translate(95,112)"/>
<path d="M0 0 C3.45925163 1.2491742 6.14693203 2.67527795 9 5 C7.68 5.33 6.36 5.66 5 6 C3.35 4.02 1.7 2.04 0 0 Z " fill="#C8D1D8" transform="translate(80,112)"/>
</svg>
