<?xml version="1.0" encoding="UTF-8"?>
<svg version="1.1" xmlns="http://www.w3.org/2000/svg" width="48" height="48">
<path d="M0 0 C2.33301986 0.03824623 4.66711508 0.04574284 7 0 C6.98839844 0.69867188 6.97679687 1.39734375 6.96484375 2.1171875 C6.95582031 3.02726563 6.94679687 3.93734375 6.9375 4.875 C6.92589844 5.77992187 6.91429687 6.68484375 6.90234375 7.6171875 C6.83750743 10.0168585 6.83750743 10.0168585 8 12 C8.8438999 20.04375476 8.97652596 26.73595394 3.74609375 33.22265625 C-1.25973283 38.31807257 -4.83702349 39.26931732 -11.875 39.625 C-18.7545541 39.41275844 -23.08966706 37.82399741 -28 33 C-32.58457499 27.63269269 -32.72630365 22.40863559 -32.51171875 15.453125 C-31.50105898 8.63310029 -28.1077533 4.80037261 -23 0.4375 C-16.24400931 -2.89505146 -7.11684578 -1.49321299 0 0 Z " fill="#FE460C" transform="translate(36,5)"/>
<path d="M0 0 C0.77923828 0.48339844 0.77923828 0.48339844 1.57421875 0.9765625 C1.24421875 2.6265625 0.91421875 4.2765625 0.57421875 5.9765625 C-0.23015625 5.6465625 -1.03453125 5.3165625 -1.86328125 4.9765625 C-7.60430635 3.36504668 -12.30227243 2.93484119 -17.73828125 5.6015625 C-21.25082393 8.70566999 -24.00696831 11.35545232 -24.7734375 16.15234375 C-24.9659873 21.13352337 -24.26841829 24.76161793 -21.42578125 28.9765625 C-17.09077282 32.88864328 -14.49542361 34.28793143 -8.5859375 34.19140625 C-3.74725859 33.71016332 -0.36316738 31.96328474 2.94921875 28.4765625 C6.00337562 23.77785963 5.98327033 19.40838698 5.57421875 13.9765625 C4.70768461 11.04575576 4.70768461 11.04575576 3.57421875 8.9765625 C5.22421875 8.6465625 6.87421875 8.3165625 8.57421875 7.9765625 C11.90961931 13.42348681 11.33500317 19.84315889 10.57421875 25.9765625 C8.52992626 31.14913174 4.94976571 35.92630117 -0.18359375 38.37890625 C-6.41094568 40.03881016 -13.161033 40.28153955 -19.19140625 37.87109375 C-23.87936942 34.97604365 -27.96746092 31.44764663 -29.42578125 25.9765625 C-30.35797077 19.12950671 -30.58442575 12.87722277 -26.86328125 6.8515625 C-20.30660614 -1.27992603 -10.02781135 -4.23073522 0 0 Z " fill="#FE3E02" transform="translate(33.42578125,5.0234375)"/>
<path d="M0 0 C0.639375 0.33 1.27875 0.66 1.9375 1 C1.6075 2.65 1.2775 4.3 0.9375 6 C-0.0834375 5.505 -0.0834375 5.505 -1.125 5 C-4.75467226 3.76436689 -7.24561372 3.53125958 -11.0625 4 C-14.03366227 5.78801488 -16.48803953 7.85107906 -18.0625 11 C-18.44016377 16.00404498 -18.17450434 18.99885156 -15.0625 23 C-12.53835319 25.61429492 -11.29442942 25.97469861 -7.625 26.375 C-3.80071077 25.97244324 -2.03609133 25.39539302 0.9375 23 C4.1120053 19.05923481 4.39045055 15.98245604 3.9375 11 C3.05685073 8.64630193 3.05685073 8.64630193 1.9375 7 C3.5875 6.67 5.2375 6.34 6.9375 6 C9.41145924 10.3565338 9.47647474 14.08934124 8.9375 19 C7.11323094 24.27011062 4.36498314 26.83751204 -0.0625 30 C-3.74524128 31.59585455 -8.11442199 31.5487676 -12.0625 31 C-17.35362204 28.25268663 -21.15625244 24.71874267 -23.0625 19 C-23.60475459 14.33305478 -23.5323456 10.92228952 -21.375 6.6875 C-15.21863205 -0.46719789 -9.15344301 -2.98887935 0 0 Z " fill="#FEF1EC" transform="translate(31.0625,9)"/>
<path d="M0 0 C2.31 0 4.62 0 7 0 C7 2.31 7 4.62 7 7 C5.98679687 7.47179687 5.98679687 7.47179687 4.953125 7.953125 C-3.40264723 11.79251237 -3.40264723 11.79251237 -8.25 19.25 C-8.4975 20.1575 -8.745 21.065 -9 22 C-11.375 22.625 -11.375 22.625 -14 23 C-16 21 -16 21 -16.0625 18.5625 C-15 16 -15 16 -11.6875 14.4375 C-10.470625 13.963125 -9.25375 13.48875 -8 13 C-3.59173903 9.72529185 -1.99016401 4.95423808 0 0 Z " fill="#26639B" transform="translate(36,5)"/>
<path d="M0 0 C2.8125 0.4375 2.8125 0.4375 4.8125 2.4375 C2.34971199 4.90028801 0.10573018 5.43521255 -3.1875 6.4375 C-2.8575 8.0875 -2.5275 9.7375 -2.1875 11.4375 C-0.5375 11.1075 1.1125 10.7775 2.8125 10.4375 C3.245625 8.9834375 3.245625 8.9834375 3.6875 7.5 C4.8125 4.4375 4.8125 4.4375 6.8125 3.4375 C8.25680855 6.32611709 8.18938506 8.23397701 7.8125 11.4375 C5.35655875 14.76024404 3.8868356 16.21368008 -0.1875 17.0625 C-4.2618356 16.21368008 -5.73155875 14.76024404 -8.1875 11.4375 C-8.8125 8.4375 -8.8125 8.4375 -8.1875 5.4375 C-5.63930098 1.98993662 -4.2925329 0.58917118 0 0 Z " fill="#FEF1EC" transform="translate(24.1875,15.5625)"/>
<path d="M0 0 C2.0625 0.4375 2.0625 0.4375 4 1 C3.01 2.32 2.02 3.64 1 5 C2.65 4.01 4.3 3.02 6 2 C5.67 3.65 5.34 5.3 5 7 C2.625 7.625 2.625 7.625 0 8 C-0.66 7.34 -1.32 6.68 -2 6 C-1.44444444 1.44444444 -1.44444444 1.44444444 0 0 Z " fill="#FC4A12" transform="translate(22,20)"/>
<path d="M0 0 C-1.39750048 3.15835107 -3.05198234 5.32272825 -5.5 7.75 C-6.41265625 8.67039062 -6.41265625 8.67039062 -7.34375 9.609375 C-9 11 -9 11 -11 11 C-9.60249952 7.84164893 -7.94801766 5.67727175 -5.5 3.25 C-4.8915625 2.63640625 -4.283125 2.0228125 -3.65625 1.390625 C-2 0 -2 0 0 0 Z " fill="#504E51" transform="translate(34,14)"/>
<path d="M0 0 C-0.309375 0.598125 -0.61875 1.19625 -0.9375 1.8125 C-2.10209704 4.08956772 -2.10209704 4.08956772 -3 7 C-4.32 6.67 -5.64 6.34 -7 6 C-5.81636731 2.44910192 -3.99368042 0 0 0 Z " fill="#4899DD" transform="translate(40,8)"/>
<path d="M0 0 C0.99 0 1.98 0 3 0 C2.67 1.32 2.34 2.64 2 4 C0.02 4.33 -1.96 4.66 -4 5 C-2.1875 2.5 -2.1875 2.5 0 0 Z " fill="#1F75CA" transform="translate(40,9)"/>
</svg>
