<?xml version="1.0" encoding="UTF-8"?>
<svg version="1.1" xmlns="http://www.w3.org/2000/svg" width="192" height="192">
<path d="M0 0 C2.75 2.375 2.75 2.375 3.75 4.375 C4.86375 4.74625 5.9775 5.1175 7.125 5.5 C9.50000919 6.44903031 10.51893706 6.98796958 11.84375 9.20703125 C12.60250719 11.25188188 13.22208461 13.25927754 13.75 15.375 C13.93820313 16.11878906 14.12640625 16.86257812 14.3203125 17.62890625 C14.53300781 18.49322266 14.53300781 18.49322266 14.75 19.375 C16.93583884 20.41597782 16.93583884 20.41597782 19.75 20.375 C21.20434487 19.13330984 21.20434487 19.13330984 22.5625 17.5 C24.97288401 14.78123788 26.50023166 13.90914493 30.125 13.5 C31.32125 13.45875 32.5175 13.4175 33.75 13.375 C34.08 16.345 34.41 19.315 34.75 22.375 C33.1 22.705 31.45 23.035 29.75 23.375 C29.75 25.355 29.75 27.335 29.75 29.375 C30.41 29.045 31.07 28.715 31.75 28.375 C37.8336227 27.7785664 40.80576103 29.14610925 45.75 32.375 C45.13479602 28.27981437 45.13479602 28.27981437 44 24.3125 C43.61780336 21.35047607 45.10359908 19.74581733 46.75 17.375 C49 17.4375 49 17.4375 51.75 18.375 C55.61865978 23.49836026 56.45577138 27.02305758 55.75 33.375 C53.70881842 39.15834782 49.94457147 42.51048775 44.6953125 45.57421875 C41.86930853 48.19025857 41.47927676 50.79547351 40.5625 54.5 C40.39234375 55.17144043 40.2221875 55.84288086 40.046875 56.53466797 C39.15291258 60.18882733 38.52231718 63.75088904 38.25 67.5 C37.68855889 71.8511686 36.95209146 73.43253758 33.75 76.375 C32.8425 76.808125 31.935 77.24125 31 77.6875 C27.85884068 79.31848657 26.27961954 80.72750696 23.875 83.25 C20.24661684 87.03189167 16.47802577 90.06648038 11.75 92.375 C11.09 92.375 10.43 92.375 9.75 92.375 C9.75 98.645 9.75 104.915 9.75 111.375 C11.791875 112.24125 11.791875 112.24125 13.875 113.125 C24.88839508 118.07154834 31.31576455 125.15206779 35.75 136.375 C35.75 137.365 35.75 138.355 35.75 139.375 C36.41 139.58125 37.07 139.7875 37.75 140 C47.6874243 144.55465281 47.6874243 144.55465281 49.484375 149.32421875 C49.75 151.25 49.75 151.25 49.75 154.375 C45.95275285 156.01980875 42.25187372 157.02367497 38.20703125 157.8828125 C36.96888672 158.14707031 35.73074219 158.41132813 34.45507812 158.68359375 C33.17052734 158.95300781 31.88597656 159.22242188 30.5625 159.5 C29.25317778 159.77958557 27.94393214 160.05953002 26.63476562 160.33984375 C17.03544489 162.375 17.03544489 162.375 14.75 162.375 C13.21364976 156.34777983 11.80622628 150.2970778 10.43359375 144.23046875 C9.78204231 141.32668372 9.78204231 141.32668372 8.75 138.375 C5.22331363 136.48592278 2.62044826 136.1741643 -1.3125 136.625 C-2.25867188 136.73199219 -3.20484375 136.83898437 -4.1796875 136.94921875 C-9.22263632 137.64855898 -14.23934645 138.4743066 -19.25 139.375 C-20.33777563 143.35666928 -21.31633242 147.35451307 -22.25 151.375 C-22.48203125 152.25671875 -22.7140625 153.1384375 -22.953125 154.046875 C-23.48313881 156.7311385 -23.71324213 158.66914642 -23.25 161.375 C-21.35790983 164.16488906 -19.33027152 166.48290645 -16.9375 168.85546875 C-15.25 171.375 -15.25 171.375 -16.25 178.375 C-28.46 178.375 -40.67 178.375 -53.25 178.375 C-50.25 162.25 -50.25 162.25 -49.30078125 157.19482422 C-49.05426458 155.85652315 -48.80814467 154.5181489 -48.5625 153.1796875 C-48.43294922 152.497854 -48.30339844 151.81602051 -48.16992188 151.11352539 C-47.18506763 145.70268926 -46.68630212 140.69434154 -48.1328125 135.34375 C-48.32762207 134.62179443 -48.52243164 133.89983887 -48.72314453 133.15600586 C-48.93825684 132.40327393 -49.15336914 131.65054199 -49.375 130.875 C-49.70733643 129.70046265 -49.70733643 129.70046265 -50.04638672 128.50219727 C-52.15816786 121.28535742 -54.53584186 113.94073856 -58.25 107.375 C-59.24 107.045 -60.23 106.715 -61.25 106.375 C-61.3325 107.1175 -61.415 107.86 -61.5 108.625 C-62.45225443 112.11659959 -63.34752456 113.19814342 -66.25 115.375 C-68.5577021 116.18803384 -70.85427045 116.86976596 -73.2265625 117.46875 C-75.38083961 118.22360628 -75.38083961 118.22360628 -76.5234375 120.21875 C-77.4628775 122.6275372 -77.4628775 122.6275372 -77.25 126.375 C-76.26 126.705 -75.27 127.035 -74.25 127.375 C-71.30311176 131.84990437 -70.34251445 136.10342664 -71.25 141.375 C-73.15646494 146.68509726 -76.18586135 149.79125579 -81.25 152.375 C-84.125 152.625 -84.125 152.625 -86.25 152.375 C-86.58 149.405 -86.91 146.435 -87.25 143.375 C-86.0434375 142.7871875 -86.0434375 142.7871875 -84.8125 142.1875 C-82.01935262 140.60551809 -82.01935262 140.60551809 -81.4375 137.6875 C-81.3446875 136.5428125 -81.3446875 136.5428125 -81.25 135.375 C-81.91 135.705 -82.57 136.035 -83.25 136.375 C-87.88518261 136.94049228 -91.84939799 137.05174909 -95.8125 134.375 C-96.616875 133.715 -97.42125 133.055 -98.25 132.375 C-97.55257507 136.69498451 -97.55257507 136.69498451 -96.5 140.9375 C-96.16182249 144.23473076 -97.36687326 145.73862256 -99.25 148.375 C-102.37981912 148.03966224 -103.25061159 147.37433599 -105.4375 145 C-108.42083931 140.67930169 -108.92890065 136.51390079 -108.25 131.375 C-106.8545959 127.54522245 -104.93765338 124.88255368 -101.625 122.4375 C-99.25 121.375 -99.25 121.375 -97.25 121.375 C-96.90775391 119.84552734 -96.90775391 119.84552734 -96.55859375 118.28515625 C-95.34423349 114.03970152 -93.1120435 111.16144886 -90.3125 107.8125 C-87.74546342 104.69244827 -85.42826424 101.73452093 -83.62109375 98.08984375 C-81.81742988 94.51848651 -79.93280023 93.75605009 -76.25 92.375 C-75.26 92.375 -74.27 92.375 -73.25 92.375 C-73.353125 91.17875 -73.45625 89.9825 -73.5625 88.75 C-73.56842325 85.40928727 -73.1092028 83.60586524 -71 81 C-67.44733934 77.60882392 -65.91090888 76.43888111 -61 76.25 C-60.0925 76.29125 -59.185 76.3325 -58.25 76.375 C-58.25 75.715 -58.25 75.055 -58.25 74.375 C-59.28125 74.2925 -60.3125 74.21 -61.375 74.125 C-66.26400154 73.17874164 -69.54339906 71.757901 -72.51171875 67.61328125 C-75.04182628 63.09459798 -76.52649403 58.53899858 -75.25 53.375 C-72.21076856 46.98428732 -69.74822447 44.62411224 -63.25 41.375 C-63.58 34.775 -63.91 28.175 -64.25 21.375 C-62.6 21.045 -60.95 20.715 -59.25 20.375 C-59.06824219 19.61574219 -58.88648438 18.85648438 -58.69921875 18.07421875 C-58.32216797 16.58341797 -58.32216797 16.58341797 -57.9375 15.0625 C-57.69386719 14.07636719 -57.45023438 13.09023438 -57.19921875 12.07421875 C-56.23778341 9.34026063 -55.50789875 8.13305857 -53.25 6.375 C-52.5075 6.106875 -51.765 5.83875 -51 5.5625 C-48.35513799 4.42040049 -47.07668355 3.418048 -45 1.5 C-32.59605029 -9.57688959 -13.44442164 -9.30342935 0 0 Z M18.75 31.375 C18.75 34.345 18.75 37.315 18.75 40.375 C20.73 41.035 22.71 41.695 24.75 42.375 C24.14593483 38.99223506 22.89257201 37.03178929 20.75 34.375 C20.09 33.385 19.43 32.395 18.75 31.375 Z " fill="#5288B2" transform="translate(109.25,13.625)"/>
<path d="M0 0 C2.75 2.375 2.75 2.375 3.75 4.375 C4.86375 4.74625 5.9775 5.1175 7.125 5.5 C9.50000919 6.44903031 10.51893706 6.98796958 11.84375 9.20703125 C12.60250719 11.25188188 13.22208461 13.25927754 13.75 15.375 C13.93820313 16.11878906 14.12640625 16.86257812 14.3203125 17.62890625 C14.53300781 18.49322266 14.53300781 18.49322266 14.75 19.375 C16.93583884 20.41597782 16.93583884 20.41597782 19.75 20.375 C21.20434487 19.13330984 21.20434487 19.13330984 22.5625 17.5 C24.97288401 14.78123788 26.50023166 13.90914493 30.125 13.5 C31.32125 13.45875 32.5175 13.4175 33.75 13.375 C34.245 17.83 34.245 17.83 34.75 22.375 C33.1 22.705 31.45 23.035 29.75 23.375 C29.75 25.355 29.75 27.335 29.75 29.375 C30.41 29.045 31.07 28.715 31.75 28.375 C37.8336227 27.7785664 40.80576103 29.14610925 45.75 32.375 C45.13479602 28.27981437 45.13479602 28.27981437 44 24.3125 C43.61780336 21.35047607 45.10359908 19.74581733 46.75 17.375 C49 17.4375 49 17.4375 51.75 18.375 C55.61865978 23.49836026 56.45577138 27.02305758 55.75 33.375 C53.70881842 39.15834782 49.94457147 42.51048775 44.6953125 45.57421875 C41.86930853 48.19025857 41.47927676 50.79547351 40.5625 54.5 C40.39524414 55.16781494 40.22798828 55.83562988 40.05566406 56.52368164 C38.85664959 61.47230875 38.10594235 66.30282152 37.75 71.375 C37.42 71.375 37.09 71.375 36.75 71.375 C36.72421875 70.69953125 36.6984375 70.0240625 36.671875 69.328125 C36.40678272 63.61736068 36.40678272 63.61736068 33.6875 58.75 C33.048125 58.29625 32.40875 57.8425 31.75 57.375 C31.585 58.550625 31.42 59.72625 31.25 60.9375 C30.07829315 65.63269674 27.56959161 67.99079322 24.015625 71.125 C21.75 72.375 21.75 72.375 15.75 72.375 C15.75 66.765 15.75 61.155 15.75 55.375 C4.83940818 63.14466387 0.29279795 70.19260009 -2.25 83.375 C-14.93404881 84.17041627 -27.54167137 84.50307946 -40.25 84.375 C-40.39695313 83.6015625 -40.54390625 82.828125 -40.6953125 82.03125 C-42.19520242 75.06624393 -43.80929078 69.23237545 -49.25 64.375 C-52.51748723 62.37738823 -55.71768894 60.90248586 -59.25 59.375 C-58.92 64.325 -58.59 69.275 -58.25 74.375 C-66.90789474 73.13815789 -66.90789474 73.13815789 -71.25 69.375 C-74.24902238 65.18751055 -76.05600631 60.70854266 -75.765625 55.4609375 C-74.70461936 51.16868742 -72.28479498 47.54092809 -69.25 44.375 C-67.27 43.385 -65.29 42.395 -63.25 41.375 C-63.58 34.775 -63.91 28.175 -64.25 21.375 C-62.6 21.045 -60.95 20.715 -59.25 20.375 C-59.06824219 19.61574219 -58.88648437 18.85648438 -58.69921875 18.07421875 C-58.44785156 17.08035156 -58.19648437 16.08648438 -57.9375 15.0625 C-57.69386719 14.07636719 -57.45023438 13.09023438 -57.19921875 12.07421875 C-56.23778341 9.34026063 -55.50789875 8.13305857 -53.25 6.375 C-52.5075 6.106875 -51.765 5.83875 -51 5.5625 C-48.35513799 4.42040049 -47.07668355 3.418048 -45 1.5 C-32.59605029 -9.57688959 -13.44442164 -9.30342935 0 0 Z M18.75 31.375 C18.75 34.345 18.75 37.315 18.75 40.375 C20.73 41.035 22.71 41.695 24.75 42.375 C24.14593483 38.99223506 22.89257201 37.03178929 20.75 34.375 C20.09 33.385 19.43 32.395 18.75 31.375 Z " fill="#5593C3" transform="translate(109.25,13.625)"/>
<path d="M0 0 C-0.33 5.94 -0.66 11.88 -1 18 C6.50977311 15.86446555 6.50977311 15.86446555 12 11 C13.30531386 8.35502191 14.13401954 5.83849152 15 3 C18.875 4.75 18.875 4.75 20 7 C20.41243809 11.04189326 20.49143581 14.96360029 20 19 C17.8125 21.5625 17.8125 21.5625 15 23 C11.70609228 24.82031742 9.26845802 26.66528671 6.6875 29.375 C3.21856 32.95804986 -0.52788122 35.76908098 -5 38 C-5.66 38 -6.32 38 -7 38 C-6.98839844 39.01320312 -6.97679688 40.02640625 -6.96484375 41.0703125 C-6.95545791 42.42187314 -6.94635857 43.7734358 -6.9375 45.125 C-6.92912109 45.79015625 -6.92074219 46.4553125 -6.91210938 47.140625 C-6.89170164 51.30380235 -7.30524826 54.83148955 -8 59 C-12.29 59.66 -16.58 60.32 -21 61 C-20.9175 59.185 -20.835 57.37 -20.75 55.5 C-20.7567859 49.74555683 -21.5350579 45.64234961 -25 41 C-29.15331163 37.05435395 -32.97205675 34.71700547 -38.75 34.625 C-43.90892028 34.76176077 -47.92987316 35.7348538 -52 39 C-56.51771186 44.58533034 -58.57526297 49.75168657 -58 57 C-56.85102873 60.44189646 -55.45991808 63.66956188 -54 67 C-59.94 67.99 -59.94 67.99 -66 69 C-66 70.65 -66 72.3 -66 74 C-66.33 74 -66.66 74 -67 74 C-67.15855469 73.40574219 -67.31710938 72.81148438 -67.48046875 72.19921875 C-69.33925665 65.59590041 -71.47497902 58.92160537 -75 53 C-75.99 52.67 -76.98 52.34 -78 52 C-78.0825 52.7425 -78.165 53.485 -78.25 54.25 C-79.20225443 57.74159959 -80.09752456 58.82314342 -83 61 C-85.3077021 61.81303384 -87.60427045 62.49476596 -89.9765625 63.09375 C-92.13083961 63.84860628 -92.13083961 63.84860628 -93.2734375 65.84375 C-94.2128775 68.2525372 -94.2128775 68.2525372 -94 72 C-93.01 72.33 -92.02 72.66 -91 73 C-88.05311176 77.47490437 -87.09251445 81.72842664 -88 87 C-89.90646494 92.31009726 -92.93586135 95.41625579 -98 98 C-100.875 98.25 -100.875 98.25 -103 98 C-103.33 95.03 -103.66 92.06 -104 89 C-102.7934375 88.4121875 -102.7934375 88.4121875 -101.5625 87.8125 C-98.76935262 86.23051809 -98.76935262 86.23051809 -98.1875 83.3125 C-98.0946875 82.1678125 -98.0946875 82.1678125 -98 81 C-98.99 81.495 -98.99 81.495 -100 82 C-104.63518261 82.56549228 -108.59939799 82.67674909 -112.5625 80 C-113.366875 79.34 -114.17125 78.68 -115 78 C-114.30257507 82.31998451 -114.30257507 82.31998451 -113.25 86.5625 C-112.91182249 89.85973076 -114.11687326 91.36362256 -116 94 C-119.12981912 93.66466224 -120.00061159 92.99933599 -122.1875 90.625 C-125.17083931 86.30430169 -125.67890065 82.13890079 -125 77 C-123.6045959 73.17022245 -121.68765338 70.50755368 -118.375 68.0625 C-116 67 -116 67 -114 67 C-113.65775391 65.47052734 -113.65775391 65.47052734 -113.30859375 63.91015625 C-112.09423349 59.66470152 -109.8620435 56.78644886 -107.0625 53.4375 C-104.49546342 50.31744827 -102.17826424 47.35952093 -100.37109375 43.71484375 C-98.56742988 40.14348651 -96.68280023 39.38105009 -93 38 C-92.01 38 -91.02 38 -90 38 C-90.1546875 36.205625 -90.1546875 36.205625 -90.3125 34.375 C-90.31842325 31.03428727 -89.8592028 29.23086524 -87.75 26.625 C-83.02700109 22.11668286 -81.84553631 22 -75 22 C-75.33 16.39 -75.66 10.78 -76 5 C-68.82134759 7.05104354 -64.93182829 8.79269355 -60.70703125 14.85546875 C-58.7211069 18.44733915 -57.78243453 21.67704445 -57.3984375 25.76171875 C-57.32028809 26.55924561 -57.24213867 27.35677246 -57.16162109 28.1784668 C-57.10828613 28.77957275 -57.05495117 29.38067871 -57 30 C-55.84886719 29.9278125 -54.69773437 29.855625 -53.51171875 29.78125 C-41.99348614 29.09696233 -30.5368683 28.88372697 -19 29 C-18.92523438 28.23816406 -18.85046875 27.47632812 -18.7734375 26.69140625 C-17.37078276 15.67644111 -13.15990308 9.36643049 -4.734375 2.3125 C-1.67857143 0 -1.67857143 0 0 0 Z " fill="#47789F" transform="translate(126,68)"/>
<path d="M0 0 C7.85058912 2.24302546 12.38832332 4.66941015 16.4375 11.8125 C17.80726209 14.92426365 18.17579131 17.37065725 18.09765625 20.76171875 C18.08355713 21.55924561 18.06945801 22.35677246 18.05493164 23.1784668 C18.0368042 23.77957275 18.01867676 24.38067871 18 25 C16.73542969 25.12117188 15.47085938 25.24234375 14.16796875 25.3671875 C12.50776802 25.53602147 10.84761411 25.70531633 9.1875 25.875 C8.35412109 25.95363281 7.52074219 26.03226563 6.66210938 26.11328125 C5.45844727 26.23896484 5.45844727 26.23896484 4.23046875 26.3671875 C3.49207764 26.44050293 2.75368652 26.51381836 1.99291992 26.58935547 C-0.30638653 26.9331578 -0.30638653 26.9331578 -3 29 C-2.38682161 35.26182227 -2.38682161 35.26182227 0 41 C0 41.99 0 42.98 0 44 C-0.66 44 -1.32 44 -2 44 C-1.8453125 45.299375 -1.8453125 45.299375 -1.6875 46.625 C-2.02005559 50.21660037 -2.88055747 52.01818139 -5.296875 54.69140625 C-7.93697078 56.71992021 -10.80127268 57.41945484 -14.01171875 58.1640625 C-16.1384891 58.84851208 -16.1384891 58.84851208 -17.26953125 60.8359375 C-18.21321135 63.25098275 -18.21321135 63.25098275 -18 67 C-17.01 67.33 -16.02 67.66 -15 68 C-12.05311176 72.47490437 -11.09251445 76.72842664 -12 82 C-13.90646494 87.31009726 -16.93586135 90.41625579 -22 93 C-24.875 93.25 -24.875 93.25 -27 93 C-27.33 90.03 -27.66 87.06 -28 84 C-26.7934375 83.4121875 -26.7934375 83.4121875 -25.5625 82.8125 C-22.76935262 81.23051809 -22.76935262 81.23051809 -22.1875 78.3125 C-22.0946875 77.1678125 -22.0946875 77.1678125 -22 76 C-22.99 76.495 -22.99 76.495 -24 77 C-28.63518261 77.56549228 -32.59939799 77.67674909 -36.5625 75 C-37.366875 74.34 -38.17125 73.68 -39 73 C-38.30257507 77.31998451 -38.30257507 77.31998451 -37.25 81.5625 C-36.91182249 84.85973076 -38.11687326 86.36362256 -40 89 C-43.12981912 88.66466224 -44.00061159 87.99933599 -46.1875 85.625 C-49.17083931 81.30430169 -49.67890065 77.13890079 -49 72 C-47.6045959 68.17022245 -45.68765338 65.50755368 -42.375 63.0625 C-40 62 -40 62 -38 62 C-37.77183594 60.98035156 -37.54367188 59.96070313 -37.30859375 58.91015625 C-36.09423349 54.66470152 -33.8620435 51.78644886 -31.0625 48.4375 C-28.49546342 45.31744827 -26.17826424 42.35952093 -24.37109375 38.71484375 C-22.56742988 35.14348651 -20.68280023 34.38105009 -17 33 C-16.01 33 -15.02 33 -14 33 C-14.1546875 31.205625 -14.1546875 31.205625 -14.3125 29.375 C-14.31842325 26.03428727 -13.8592028 24.23086524 -11.75 21.625 C-7.02700109 17.11668286 -5.84553631 17 1 17 C0.67 11.39 0.34 5.78 0 0 Z " fill="#344F63" transform="translate(50,73)"/>
<path d="M0 0 C5.71516852 3.31392851 9.62967498 7.7913687 11.7421875 14.12890625 C11.87500445 17.79996668 11.78542047 21.45410339 11.7421875 25.12890625 C15.7021875 24.79890625 19.6621875 24.46890625 23.7421875 24.12890625 C24.2371875 28.58390625 24.2371875 28.58390625 24.7421875 33.12890625 C19.77407055 34.6368968 14.84491049 35.72830415 9.71875 36.56640625 C8.97313812 36.69200928 8.22752625 36.8176123 7.45932007 36.94702148 C5.09588724 37.34474288 2.7316323 37.73724975 0.3671875 38.12890625 C-2.7452905 38.64680008 -5.85727851 39.16749918 -8.96875 39.69140625 C-9.70829422 39.81556915 -10.44783844 39.93973206 -11.20979309 40.06765747 C-15.03414272 40.71860714 -18.82586479 41.43462081 -22.60546875 42.30859375 C-26.37613498 43.15548135 -29.42432975 43.29203318 -33.2578125 43.12890625 C-33.5878125 40.15890625 -33.9178125 37.18890625 -34.2578125 34.12890625 C-30.60701424 32.51825996 -27.2070693 31.67996534 -23.2578125 31.12890625 C-23.5465625 30.56042969 -23.8353125 29.99195313 -24.1328125 29.40625 C-26.5047045 24.47304407 -28.1364601 20.69367436 -27.2578125 15.12890625 C-24.74433987 8.06671546 -21.75823066 3.86062778 -15.2578125 0.12890625 C-10.26193996 -1.5363846 -4.98606556 -1.92368965 0 0 Z " fill="#344D63" transform="translate(94.2578125,102.87109375)"/>
<path d="M0 0 C2.75 2.375 2.75 2.375 3.75 4.375 C5.76669827 5.50850534 5.76669827 5.50850534 7.75 6.375 C5.77 7.035 3.79 7.695 1.75 8.375 C1.75 12.335 1.75 16.295 1.75 20.375 C-1.08012127 21.31837376 -2.79299918 21.49672829 -5.72143555 21.48852539 C-7.07249641 21.48841209 -7.07249641 21.48841209 -8.45085144 21.48829651 C-9.41968765 21.48313522 -10.38852386 21.47797394 -11.38671875 21.47265625 C-12.87858452 21.47053383 -12.87858452 21.47053383 -14.40058899 21.46836853 C-17.57958982 21.46276761 -20.75852043 21.45021496 -23.9375 21.4375 C-26.09179586 21.43248512 -28.24609282 21.42792219 -30.40039062 21.42382812 C-35.68362084 21.41279787 -40.96679851 21.39553262 -46.25 21.375 C-46.25 17.415 -46.25 13.455 -46.25 9.375 C-48.56 8.715 -50.87 8.055 -53.25 7.375 C-52.66605469 7.11460938 -52.08210938 6.85421875 -51.48046875 6.5859375 C-49.1129349 5.30058637 -47.50121529 3.86149183 -45.5625 2 C-32.91526611 -9.3258811 -13.91727689 -9.6306413 0 0 Z " fill="#C1D5E5" transform="translate(109.25,13.625)"/>
<path d="M0 0 C0.33 0 0.66 0 1 0 C1.08636719 0.60328125 1.17273438 1.2065625 1.26171875 1.828125 C1.95846596 5.79127429 2.47884941 8.38688166 5.125 11.5 C8.86462459 13.45110848 11.80219475 13.71540303 16 14 C16 14.33 16 14.66 16 15 C15.05125 15.2475 14.1025 15.495 13.125 15.75 C9.97192269 16.69156556 9.97192269 16.69156556 8.625 18.875 C7.81188912 21.27040939 7.81188912 21.27040939 8 25 C8.99 25.33 9.98 25.66 11 26 C13.94688824 30.47490437 14.90748555 34.72842664 14 40 C12.09353506 45.31009726 9.06413865 48.41625579 4 51 C1.125 51.25 1.125 51.25 -1 51 C-1.33 48.03 -1.66 45.06 -2 42 C-0.7934375 41.4121875 -0.7934375 41.4121875 0.4375 40.8125 C3.23064738 39.23051809 3.23064738 39.23051809 3.8125 36.3125 C3.9053125 35.1678125 3.9053125 35.1678125 4 34 C3.01 34.495 3.01 34.495 2 35 C-2.63518261 35.56549228 -6.59939799 35.67674909 -10.5625 33 C-11.366875 32.34 -12.17125 31.68 -13 31 C-12.30257507 35.31998451 -12.30257507 35.31998451 -11.25 39.5625 C-10.91182249 42.85973076 -12.11687326 44.36362256 -14 47 C-17.12981912 46.66466224 -18.00061159 45.99933599 -20.1875 43.625 C-23.17083931 39.30430169 -23.67890065 35.13890079 -23 30 C-21.6045959 26.17022245 -19.68765338 23.50755368 -16.375 21.0625 C-14 20 -14 20 -12 20 C-11.77441406 18.98808594 -11.54882812 17.97617188 -11.31640625 16.93359375 C-10.07368122 12.58788835 -7.75520004 9.53381079 -4.9375 6.0625 C-4.47794922 5.47404297 -4.01839844 4.88558594 -3.54492188 4.27929688 C-2.39584751 2.82650241 -1.20178563 1.40950167 0 0 Z " fill="#538CBA" transform="translate(24,115)"/>
<path d="M0 0 C0.33 2.97 0.66 5.94 1 9 C-0.65 9.33 -2.3 9.66 -4 10 C-4 11.98 -4 13.96 -4 16 C-3.34 15.67 -2.68 15.34 -2 15 C4.0836227 14.4035664 7.05576103 15.77110925 12 19 C11.38479602 14.90481437 11.38479602 14.90481437 10.25 10.9375 C9.86780336 7.97547607 11.35359908 6.37081733 13 4 C15.25 4.0625 15.25 4.0625 18 5 C21.86865978 10.12336026 22.70577138 13.64805758 22 20 C19.87679387 26.01575069 15.8696912 29.00715889 10.75 32.5625 C8.77145122 34.1877365 7.97087649 35.65371514 7 38 C7 37.01 7 36.02 7 35 C6.01 35.495 6.01 35.495 5 36 C0.21870922 36.66938071 -2.50109614 36.02980667 -6.375 33.3125 C-8.85544782 31.28910207 -9.85443778 30.47027793 -10.8125 27.375 C-10.9053125 26.199375 -10.9053125 26.199375 -11 25 C-11.495 24.360625 -11.99 23.72125 -12.5 23.0625 C-14.89628344 19.76761027 -15.1755125 16.80618313 -14.78515625 12.7890625 C-13.85321828 7.44595145 -12.41112812 4.4428317 -8 1 C-5.07175348 0.02391783 -3.04386724 -0.08226668 0 0 Z " fill="#5993C1" transform="translate(143,27)"/>
<path d="M0 0 C3.0625 0.5 3.0625 0.5 5.375 1.9375 C7.79398998 5.61078108 7.87780637 9.17816914 8.0625 13.5 C8.8875 13.17 9.7125 12.84 10.5625 12.5 C16.26836562 10.86975268 19.70728052 10.25626779 24.984375 13.04296875 C32.40687799 18.01373824 32.40687799 18.01373824 33.984375 21.58984375 C34.25 23.5 34.25 23.5 34.0625 26.5 C30.26525285 28.14480875 26.56437372 29.14867497 22.51953125 30.0078125 C21.28138672 30.27207031 20.04324219 30.53632813 18.76757812 30.80859375 C17.48302734 31.07800781 16.19847656 31.34742188 14.875 31.625 C13.56567778 31.90458557 12.25643214 32.18453002 10.94726562 32.46484375 C1.34794489 34.5 1.34794489 34.5 -0.9375 34.5 C-2.75830535 28.12718128 -3.64523676 21.75508239 -4.47265625 15.18359375 C-4.78878241 12.67849319 -5.1540232 10.1792085 -5.5625 7.6875 C-5.9375 4.5 -5.9375 4.5 -4.875 2.0625 C-2.9375 0.5 -2.9375 0.5 0 0 Z " fill="#3A5164" transform="translate(124.9375,141.5)"/>
<path d="M0 0 C1.8125 1.0625 1.8125 1.0625 3 3 C3.31180765 7.20940331 2.87401526 10.89776707 2 15 C3.10408203 14.91298828 3.10408203 14.91298828 4.23046875 14.82421875 C12.25990932 14.45297645 12.25990932 14.45297645 15.875 17.125 C16.57625 18.07375 17.2775 19.0225 18 20 C18.474375 20.46921875 18.94875 20.9384375 19.4375 21.421875 C20.875 22.875 20.875 22.875 23 26 C22.67 28.31 22.34 30.62 22 33 C9.79 33 -2.42 33 -15 33 C-14.236875 28.648125 -13.47375 24.29625 -12.6875 19.8125 C-12.45377686 18.44843018 -12.22005371 17.08436035 -11.97924805 15.67895508 C-11.78371338 14.59509521 -11.58817871 13.51123535 -11.38671875 12.39453125 C-11.19295654 11.28956299 -10.99919434 10.18459473 -10.79956055 9.04614258 C-9.96930795 5.8830703 -8.89012425 3.65745289 -7 1 C-4.45132831 -0.27433584 -2.82594567 -0.27570202 0 0 Z " fill="#364E60" transform="translate(71,159)"/>
<path d="M0 0 C-0.33 5.94 -0.66 11.88 -1 18 C6.50977311 15.86446555 6.50977311 15.86446555 12 11 C13.30531386 8.35502191 14.13401954 5.83849152 15 3 C18.875 4.75 18.875 4.75 20 7 C20.41243809 11.04189326 20.49143581 14.96360029 20 19 C17.8125 21.5625 17.8125 21.5625 15 23 C11.6494938 24.85159553 9.15047181 26.76347391 6.5 29.5 C3.06528271 33.01649628 0.29148659 35.84723423 -4.8125 36.1875 C-5.534375 36.125625 -6.25625 36.06375 -7 36 C-7 33.36 -7 30.72 -7 28 C-7.66 28.33 -8.32 28.66 -9 29 C-10.54023996 29.06950541 -12.08334988 29.08452357 -13.625 29.0625 C-14.85089844 29.04896484 -14.85089844 29.04896484 -16.1015625 29.03515625 C-16.72804688 29.02355469 -17.35453125 29.01195313 -18 29 C-18.32763957 20.97283056 -16.81229449 15.27696728 -11.859375 9 C-3.4921875 0 -3.4921875 0 0 0 Z " fill="#334E63" transform="translate(126,68)"/>
<path d="M0 0 C0.48350422 7.89723556 -1.32335279 15.33532703 -3 23 C-6.96 22.67 -10.92 22.34 -15 22 C-14.93489583 18.94010417 -14.86979167 15.88020833 -14.8046875 12.8203125 C-14.69939466 9.8628949 -14.69939466 9.8628949 -17 8 C-20.58343976 7.83322718 -20.58343976 7.83322718 -24 8 C-24.66 9.32 -25.32 10.64 -26 12 C-25.25 5.25 -25.25 5.25 -23 3 C-20.49609375 2.65625 -20.49609375 2.65625 -17.4375 2.5 C-11.62892889 2.11555787 -5.70789278 0 0 0 Z " fill="#4D7EA4" transform="translate(88,152)"/>
<path d="M0 0 C3.07583603 2.21687566 5.44703201 4.63929801 7.5625 7.8125 C7.5625 8.1425 7.5625 8.4725 7.5625 8.8125 C-4.45581182 9.60803837 -16.39355749 9.94062705 -28.4375 9.8125 C-25.86696144 4.52549711 -23.32388833 0.46600361 -17.5546875 -1.67578125 C-11.41202533 -3.16044683 -5.53400334 -3.27290869 0 0 Z " fill="#FEFEFE" transform="translate(97.4375,25.1875)"/>
<path d="M0 0 C3.36179456 1.47590981 6.42350305 3.21698224 9.5625 5.125 C9.4756252 7.08417659 9.36745488 9.04241871 9.25 11 C9.19199219 12.09054688 9.13398437 13.18109375 9.07421875 14.3046875 C8.90535156 15.23539063 8.73648438 16.16609375 8.5625 17.125 C5.40009418 19.23327055 4.05592531 19.46317465 0.375 19.75 C-0.52605469 19.82476562 -1.42710938 19.89953125 -2.35546875 19.9765625 C-3.04253906 20.02554688 -3.72960937 20.07453125 -4.4375 20.125 C-5.30941947 18.74018672 -6.15940384 17.34154754 -7 15.9375 C-7.47566406 15.16019531 -7.95132813 14.38289063 -8.44140625 13.58203125 C-9.66557379 10.56241799 -9.48313794 9.18262373 -8.4375 6.125 C-6.2846953 2.92304364 -3.97100501 0.20364128 0 0 Z " fill="#FB6598" transform="translate(86.4375,110.875)"/>
<path d="M0 0 C0.103125 0.639375 0.20625 1.27875 0.3125 1.9375 C0.6528125 2.9584375 0.6528125 2.9584375 1 4 C1.99 4.33 2.98 4.66 4 5 C6.94688824 9.47490437 7.90748555 13.72842664 7 19 C5.09353506 24.31009726 2.06413865 27.41625579 -3 30 C-5.875 30.25 -5.875 30.25 -8 30 C-8.33 27.03 -8.66 24.06 -9 21 C-8.175 20.62875 -7.35 20.2575 -6.5 19.875 C-5.675 19.25625 -4.85 18.6375 -4 18 C-3.83329727 15.04173894 -3.83329727 15.04173894 -4 12 C-3.525625 11.38125 -3.05125 10.7625 -2.5625 10.125 C-0.20805221 6.922951 -0.32727853 3.9273423 0 0 Z " fill="#B3C3D0" transform="translate(31,136)"/>
<path d="M0 0 C1.65 0 3.3 0 5 0 C5.15855469 0.61488281 5.31710938 1.22976562 5.48046875 1.86328125 C6.93304369 7.03129201 6.93304369 7.03129201 10.3125 11.0625 C14.5130091 12.52779387 17.4869909 12.52779387 21.6875 11.0625 C25.10641137 8.01320067 25.87907353 4.34700752 27 0 C28.65 0 30.3 0 32 0 C31.97167215 6.24629085 30.92230966 9.96365813 26.66796875 14.58984375 C22.48623552 18.12522009 18.80248508 18.43406217 13.46875 18.31640625 C8.69645667 17.70476739 6.05342761 14.99648558 2.6875 11.8125 C0.38421144 7.97368574 0.19217005 4.41030263 0 0 Z " fill="#497DA4" transform="translate(72,59)"/>
<path d="M0 0 C0.33 2.97 0.66 5.94 1 9 C-0.65 9.33 -2.3 9.66 -4 10 C-3.938125 11.258125 -3.87625 12.51625 -3.8125 13.8125 C-3.70703125 15.95703125 -3.70703125 15.95703125 -4 18 C-4.4846875 18.474375 -4.969375 18.94875 -5.46875 19.4375 C-7.58168991 21.59356114 -7.49483196 23.22041213 -7.6875 26.1875 C-7.75324219 27.08855469 -7.81898438 27.98960938 -7.88671875 28.91796875 C-7.92410156 29.60503906 -7.96148437 30.29210937 -8 31 C-10 29 -10 29 -10.4375 27.125 C-10.87354078 24.89921191 -10.87354078 24.89921191 -12.5 23.125 C-14.86083788 19.78047967 -15.17827063 16.83456682 -14.78515625 12.7890625 C-13.85321828 7.44595145 -12.41112812 4.4428317 -8 1 C-5.07175348 0.02391783 -3.04386724 -0.08226668 0 0 Z " fill="#BDCFDE" transform="translate(143,27)"/>
<path d="M0 0 C7.26 0 14.52 0 22 0 C20.86166008 7.96837945 20.86166008 7.96837945 16 12 C13.13391871 13.43304064 11.18699217 13.30644155 8 13 C4.19187219 10.94946964 1.28976243 9.25621602 0 5 C0 3.35 0 1.7 0 0 Z " fill="#F8CA0B" transform="translate(77,59)"/>
<path d="M0 0 C-0.03255208 1.98567708 -0.06510417 3.97135417 -0.09765625 5.95703125 C-0.08263217 8.20305461 -0.08263217 8.20305461 1 11 C0.34 11 -0.32 11 -1 11 C-0.30257507 15.31998451 -0.30257507 15.31998451 0.75 19.5625 C1.08817751 22.85973076 -0.11687326 24.36362256 -2 27 C-5.12981912 26.66466224 -6.00061159 25.99933599 -8.1875 23.625 C-11.17083931 19.30430169 -11.67890065 15.13890079 -11 10 C-9.6045959 6.17022245 -7.68765338 3.50755368 -4.375 1.0625 C-2 0 -2 0 0 0 Z " fill="#B4C4D1" transform="translate(12,135)"/>
<path d="M0 0 C2.25 0.0625 2.25 0.0625 5 1 C8.86865978 6.12336026 9.70577138 9.64805758 9 16 C7.14325064 21.26078987 4.32651785 23.7310754 0 27 C-0.66 26.67 -1.32 26.34 -2 26 C-1.96744792 24.01432292 -1.93489583 22.02864583 -1.90234375 20.04296875 C-1.91736783 17.79694539 -1.91736783 17.79694539 -3 15 C-2.34 15 -1.68 15 -1 15 C-1.61520398 10.90481437 -1.61520398 10.90481437 -2.75 6.9375 C-3.13219664 3.97547607 -1.64640092 2.37081733 0 0 Z " fill="#B8C8D5" transform="translate(156,31)"/>
<path d="M0 0 C3.5 0.25 3.5 0.25 5.5 2.25 C7.04624614 6.7169333 7.73026319 10.52960464 7.5 15.25 C3.87 15.25 0.24 15.25 -3.5 15.25 C-5.25210338 10.76023509 -5.87076135 7.06989758 -5.5 2.25 C-3.5 0.25 -3.5 0.25 0 0 Z " fill="#5082AA" transform="translate(115.5,19.75)"/>
<path d="M0 0 C3.4375 0.4375 3.4375 0.4375 5.4375 2.4375 C5.77296255 7.63716951 5.81400833 9.68448333 3.4375 14.4375 C-0.1925 14.4375 -3.8225 14.4375 -7.5625 14.4375 C-6.54505814 0.80377907 -6.54505814 0.80377907 0 0 Z " fill="#5182A9" transform="translate(58.5625,20.5625)"/>
<path d="M0 0 C0.33 0 0.66 0 1 0 C1.08636719 0.60328125 1.17273437 1.2065625 1.26171875 1.828125 C1.95846596 5.79127429 2.47884941 8.38688166 5.125 11.5 C8.86462459 13.45110848 11.80219475 13.71540303 16 14 C16 14.33 16 14.66 16 15 C15.0925 15.28875 14.185 15.5775 13.25 15.875 C10.67797092 16.76531776 8.38653234 17.71494413 6 19 C5.39671875 18.27876953 5.39671875 18.27876953 4.78125 17.54296875 C2.60047697 15.65392194 1.34563463 15.5259226 -1.5 15.3125 C-2.2734375 15.24675781 -3.046875 15.18101562 -3.84375 15.11328125 C-5.56054715 15.0230872 -7.28083526 15 -9 15 C-9.33 15.66 -9.66 16.32 -10 17 C-9.51178634 12.30094351 -7.33669232 9.30142845 -4.5 5.6875 C-4.08363281 5.13771484 -3.66726562 4.58792969 -3.23828125 4.02148438 C-2.19023687 2.65631329 -1.09868311 1.32475829 0 0 Z " fill="#5483A8" transform="translate(24,115)"/>
<path d="M0 0 C2 2 2 2 2.1953125 3.9453125 C2.13020833 5.96354167 2.06510417 7.98177083 2 10 C2.66 10.33 3.32 10.66 4 11 C3.67 13.64 3.34 16.28 3 19 C-0.32957907 18.72253508 -1.78804723 18.18903896 -4.3125 15.9375 C-6.18583148 12.67651557 -6.69365061 10.6476146 -6.5390625 6.9375 C-5.54305266 3.35763855 -3.00369732 2.00246488 0 0 Z " fill="#4478A1" transform="translate(47,62)"/>
<path d="M0 0 C6.19047619 2.47619048 6.19047619 2.47619048 8 6 C8.52605872 10.13331855 8.43489558 12.25906679 6.3125 15.875 C4 18 4 18 -1 19 C-0.67 12.73 -0.34 6.46 0 0 Z " fill="#477CA6" transform="translate(126,61)"/>
<path d="M0 0 C0.99 0.33 1.98 0.66 3 1 C4.56118428 1.06740865 6.1250252 1.08514456 7.6875 1.0625 C8.49574219 1.05347656 9.30398437 1.04445312 10.13671875 1.03515625 C10.75160156 1.02355469 11.36648437 1.01195312 12 1 C12.20991178 6.14283854 11.43952164 10.08869086 10 15 C9.56436368 17.99200772 9.25953823 20.98799056 9 24 C8.67 24 8.34 24 8 24 C7.96132812 22.98679687 7.96132812 22.98679687 7.921875 21.953125 C7.65678272 16.24236068 7.65678272 16.24236068 4.9375 11.375 C4.298125 10.92125 3.65875 10.4675 3 10 C2.67 10.66 2.34 11.32 2 12 C1.93941406 11.38511719 1.87882813 10.77023438 1.81640625 10.13671875 C1.73261719 9.32847656 1.64882812 8.52023438 1.5625 7.6875 C1.48128906 6.88699219 1.40007812 6.08648437 1.31640625 5.26171875 C1.04734307 2.83912821 1.04734307 2.83912821 0 0 Z " fill="#5380A3" transform="translate(138,61)"/>
<path d="M0 0 C1.8125 1.125 1.8125 1.125 3 3 C3.39769128 6.18153026 3.55198782 8.12844028 1.8125 10.875 C-0.65507108 12.40659584 -2.14519831 12.42822025 -5 12 C-6.8125 10.875 -6.8125 10.875 -8 9 C-8.39769128 5.81846974 -8.55198782 3.87155972 -6.8125 1.125 C-4.34492892 -0.40659584 -2.85480169 -0.42822025 0 0 Z " fill="#477CA7" transform="translate(64,56)"/>
<path d="M0 0 C3.5 -0.3125 3.5 -0.3125 7 0 C9 2 9 2 9.3125 4.9375 C9 8 9 8 7.9375 9.9375 C4.87530347 11.61676907 2.30629059 10.68621125 -1 10 C-2.25 3.375 -2.25 3.375 0 0 Z " fill="#477CA6" transform="translate(111,56)"/>
<path d="M0 0 C3.0625 0.3125 3.0625 0.3125 5 1.4375 C6.60193488 4.26444391 5.85834319 6.26176777 5.0625 9.3125 C4.0625 10.3125 4.0625 10.3125 0.625 10.5 C-2.9375 10.3125 -2.9375 10.3125 -4.9375 8.3125 C-5.1875 5.3125 -5.1875 5.3125 -4.9375 2.3125 C-2.9375 0.3125 -2.9375 0.3125 0 0 Z " fill="#43769E" transform="translate(34.9375,111.6875)"/>
<path d="M0 0 C5.20955943 0.54837468 10.06836739 1.18837986 15 3 C15.33 3.99 15.66 4.98 16 6 C13.41569255 7.71056541 12.31678461 8.05220752 9.203125 7.5390625 C8.22859375 7.23742187 7.2540625 6.93578125 6.25 6.625 C5.26515625 6.32851562 4.2803125 6.03203125 3.265625 5.7265625 C2.51796875 5.48679687 1.7703125 5.24703125 1 5 C0.67 3.35 0.34 1.7 0 0 Z " fill="#35536B" transform="translate(75,82)"/>
<path d="M0 0 C0.33 0.99 0.66 1.98 1 3 C-0.216875 3.391875 -1.43375 3.78375 -2.6875 4.1875 C-6.74652429 5.68179567 -9.06309254 7.80395365 -12 11 C-12.66 11 -13.32 11 -14 11 C-13.7215625 12.1446875 -13.7215625 12.1446875 -13.4375 13.3125 C-13 16 -13 16 -14 19 C-15.32 18.67 -16.64 18.34 -18 18 C-17.01 18 -16.02 18 -15 18 C-15.103125 16.80375 -15.20625 15.6075 -15.3125 14.375 C-15.31842325 11.03428727 -14.8592028 9.23086524 -12.75 6.625 C-9.19733934 3.23382392 -7.66090888 2.06388111 -2.75 1.875 C-1.38875 1.936875 -1.38875 1.936875 0 2 C0 1.34 0 0.68 0 0 Z " fill="#6F808E" transform="translate(51,88)"/>
<path d="M0 0 C2.97 0.33 5.94 0.66 9 1 C2.08792373 9.14088983 2.08792373 9.14088983 0 11 C-0.66 11 -1.32 11 -2 11 C-1.34 7.37 -0.68 3.74 0 0 Z " fill="#587E9C" transform="translate(129,90)"/>
<path d="M0 0 C2 2 2 2 2.3125 4.4375 C2 7 2 7 0.9375 8.875 C-2.11569315 10.64782183 -4.66411708 9.69235306 -8 9 C-6.8553125 7.88625 -6.8553125 7.88625 -5.6875 6.75 C-3.5606298 4.5736677 -1.7440044 2.47832204 0 0 Z " fill="#406F95" transform="translate(140,76)"/>
<path d="M0 0 C2.64 0 5.28 0 8 0 C7.67 1.65 7.34 3.3 7 5 C4.625 5.625 4.625 5.625 2 6 C1.34 5.34 0.68 4.68 0 4 C0 2.68 0 1.36 0 0 Z " fill="#FEFEFE" transform="translate(86,59)"/>
<path d="M0 0 C2.42857143 6.28571429 2.42857143 6.28571429 1 10 C0.6596875 8.824375 0.6596875 8.824375 0.3125 7.625 C-1.32825559 4.34348882 -2.62035159 4.12654947 -6 3 C-6.33 2.34 -6.66 1.68 -7 1 C-4 0 -4 0 0 0 Z " fill="#688BA7" transform="translate(119,147)"/>
<path d="M0 0 C1.67542976 0.28604898 3.34385343 0.61781233 5 1 C4.67 2.32 4.34 3.64 4 5 C2.68 5.33 1.36 5.66 0 6 C-0.38218767 4.34385343 -0.71395102 2.67542976 -1 1 C-0.67 0.67 -0.34 0.34 0 0 Z " fill="#43759C" transform="translate(66,163)"/>
<path d="M0 0 C1.65 0 3.3 0 5 0 C5.5625 1.9375 5.5625 1.9375 6 4 C5 5 5 5 2.4375 5.0625 C1.2309375 5.0315625 1.2309375 5.0315625 0 5 C0 3.35 0 1.7 0 0 Z " fill="#42739A" transform="translate(123,146)"/>
<path d="M0 0 C0.74609375 1.734375 0.74609375 1.734375 1 4 C-0.65234375 6.140625 -0.65234375 6.140625 -2.9375 8.25 C-3.68902344 8.95640625 -4.44054687 9.6628125 -5.21484375 10.390625 C-5.80394531 10.92171875 -6.39304687 11.4528125 -7 12 C-7 8.19654123 -5.86213669 7.22298985 -3.5 4.3125 C-2.8503125 3.50425781 -2.200625 2.69601563 -1.53125 1.86328125 C-1.0259375 1.24839844 -0.520625 0.63351563 0 0 Z " fill="#94B1C8" transform="translate(24,115)"/>
<path d="M0 0 C0.33 0 0.66 0 1 0 C1.08082094 1.95766281 1.13910778 3.91626728 1.1875 5.875 C1.23970703 7.51082031 1.23970703 7.51082031 1.29296875 9.1796875 C1.19628906 10.11039063 1.09960938 11.04109375 1 12 C0.01 12.66 -0.98 13.32 -2 14 C-1.03644647 4.58997722 -1.03644647 4.58997722 0 0 Z " fill="#738491" transform="translate(61,165)"/>
<path d="M0 0 C2 2 2 2 2.125 4.625 C2.08375 5.40875 2.0425 6.1925 2 7 C0.35 7.33 -1.3 7.66 -3 8 C-2.5359375 7.13375 -2.5359375 7.13375 -2.0625 6.25 C-1.07416636 4.15705816 -0.4831387 2.25464725 0 0 Z " fill="#6C7B88" transform="translate(157,161)"/>
<path d="M0 0 C0.66 0.33 1.32 0.66 2 1 C0.9024777 3.99324263 0.32317108 4.84610901 -2.625 6.25 C-3.40875 6.4975 -4.1925 6.745 -5 7 C-3.70700306 4.11562221 -2.34058637 2.12780579 0 0 Z " fill="#6E7D89" transform="translate(144,84)"/>
<path d="M0 0 C0.33 0.99 0.66 1.98 1 3 C-0.40445835 5.2636564 -2.1967913 7.0208685 -4 9 C-4.66 8.67 -5.32 8.34 -6 8 C-4.02 5.36 -2.04 2.72 0 0 Z " fill="#75848F" transform="translate(47,120)"/>
</svg>
