<?xml version="1.0" encoding="UTF-8"?>
<svg version="1.1" xmlns="http://www.w3.org/2000/svg" width="192" height="192">
<path d="M0 0 C9.5691208 7.76950315 16.18307143 16.36095995 18.16015625 28.75390625 C18.29163505 30.31587442 18.41651302 31.87841072 18.53515625 33.44140625 C18.83606292 36.7179455 18.99132495 37.5481431 21.16015625 40.19140625 C24.17323888 44.05191837 24.38820263 47.93550702 24.16015625 52.75390625 C23.52340113 54.91582334 22.7157973 56.88009239 21.79296875 58.93359375 C20.83417503 61.69160531 21.49872906 63.97591207 22.16015625 66.75390625 C21.83015625 67.41390625 21.50015625 68.07390625 21.16015625 68.75390625 C19.67515625 69.24890625 19.67515625 69.24890625 18.16015625 69.75390625 C20.44690442 73.53078951 22.64226505 77.15424275 25.53515625 80.50390625 C27.16015625 82.75390625 27.16015625 82.75390625 26.97265625 85.00390625 C26.16015625 86.75390625 26.16015625 86.75390625 25.16015625 87.75390625 C23.30728123 87.82617127 21.45181747 87.83771845 19.59765625 87.81640625 C18.58574219 87.80738281 17.57382813 87.79835938 16.53125 87.7890625 C15.74878906 87.77746094 14.96632813 87.76585938 14.16015625 87.75390625 C14.17062988 88.48915527 14.18110352 89.2244043 14.19189453 89.98193359 C14.23387423 93.36422201 14.25961455 96.74645532 14.28515625 100.12890625 C14.30191406 101.28519531 14.31867188 102.44148438 14.3359375 103.6328125 C14.37144467 109.91758177 14.04923595 115.64898426 12.49560547 121.75244141 C11.96607967 123.95282912 11.96607967 123.95282912 13.16015625 126.75390625 C9.9470415 132.49161117 9.9470415 132.49161117 6.16015625 133.75390625 C1.50687985 138.95462693 1.36651163 143.96894141 1.16015625 150.75390625 C1.09699219 152.01976562 1.03382812 153.285625 0.96875 154.58984375 C0.92878906 155.90210938 0.88882813 157.214375 0.84765625 158.56640625 C0.81027344 159.78972656 0.77289063 161.01304687 0.734375 162.2734375 C1.24483317 166.44608181 2.52085415 168.51969885 5.16015625 171.75390625 C6.23265625 172.41390625 7.30515625 173.07390625 8.41015625 173.75390625 C9.31765625 174.41390625 10.22515625 175.07390625 11.16015625 175.75390625 C11.16015625 177.73390625 11.16015625 179.71390625 11.16015625 181.75390625 C1.26015625 181.75390625 -8.63984375 181.75390625 -18.83984375 181.75390625 C-19.16984375 169.87390625 -19.49984375 157.99390625 -19.83984375 145.75390625 C-24.45984375 145.75390625 -29.07984375 145.75390625 -33.83984375 145.75390625 C-34.16984375 157.63390625 -34.49984375 169.51390625 -34.83984375 181.75390625 C-44.73984375 181.75390625 -54.63984375 181.75390625 -64.83984375 181.75390625 C-64.83984375 175.75390625 -64.83984375 175.75390625 -63.16015625 173.99609375 C-62.43570313 173.54492188 -61.71125 173.09375 -60.96484375 172.62890625 C-57.82479119 170.63682989 -56.03361425 169.3414031 -54.83984375 165.75390625 C-54.49280279 160.75416354 -54.68690884 155.75997574 -54.83984375 150.75390625 C-54.85789062 149.77679688 -54.8759375 148.7996875 -54.89453125 147.79296875 C-55.20013755 141.95049541 -56.62887411 137.92782924 -60.83984375 133.75390625 C-62.15731699 133.05642042 -63.48898568 132.38430668 -64.83984375 131.75390625 C-66.65234375 129.44140625 -66.65234375 129.44140625 -67.83984375 126.75390625 C-67.52388867 125.08385796 -67.18804416 123.41753042 -66.83984375 121.75390625 C-67.154375 120.62339844 -67.46890625 119.49289063 -67.79296875 118.328125 C-69.24156409 112.87023574 -69.09466176 107.49110217 -69.02734375 101.87890625 C-69.02669922 100.83476563 -69.02605469 99.790625 -69.02539062 98.71484375 C-68.98062746 91.03547366 -68.98062746 91.03547366 -67.83984375 88.75390625 C-68.98324219 88.69332031 -70.12664062 88.63273437 -71.3046875 88.5703125 C-72.7955868 88.48592197 -74.2864715 88.40127323 -75.77734375 88.31640625 C-76.53208984 88.27708984 -77.28683594 88.23777344 -78.06445312 88.19726562 C-83.7265625 87.8671875 -83.7265625 87.8671875 -84.83984375 86.75390625 C-85.15266009 83.81442572 -85.13674022 82.23329872 -83.5625 79.69140625 C-83.01464844 79.05203125 -82.46679688 78.41265625 -81.90234375 77.75390625 C-78.59690193 73.74267222 -78.59690193 73.74267222 -77.83984375 68.75390625 C-79.66037729 65.6064201 -79.66037729 65.6064201 -81.83984375 62.75390625 C-83.36130597 58.18951958 -83.35817221 54.2479118 -81.77734375 49.69140625 C-80.6525828 46.16715527 -81.15669156 44.37461285 -81.83984375 40.75390625 C-82.82466258 27.20194282 -78.71662024 17.20020585 -70.1796875 6.71484375 C-53.04110224 -11.67976076 -20.2751471 -14.68200308 0 0 Z " fill="#BD7858" transform="translate(126.83984375,10.24609375)"/>
<path d="M0 0 C0.4021875 0.8971875 0.4021875 0.8971875 0.8125 1.8125 C1.861285 3.99149215 1.861285 3.99149215 3.375 5.375 C5.65455019 7.65455019 7.22664242 10.31309457 9 13 C10.1446875 14.299375 10.1446875 14.299375 11.3125 15.625 C13 18 13 18 12.8125 20.25 C12 22 12 22 11 23 C9.14712498 23.07226502 7.29166122 23.0838122 5.4375 23.0625 C4.42558594 23.05347656 3.41367188 23.04445313 2.37109375 23.03515625 C1.58863281 23.02355469 0.80617188 23.01195313 0 23 C0.01047363 23.73524902 0.02094727 24.47049805 0.03173828 25.22802734 C0.07371798 28.61031576 0.0994583 31.99254907 0.125 35.375 C0.14175781 36.53128906 0.15851563 37.68757813 0.17578125 38.87890625 C0.21128842 45.16367552 -0.1109203 50.89507801 -1.66455078 56.99853516 C-2.19407658 59.19892287 -2.19407658 59.19892287 -1 62 C-4.21311475 67.73770492 -4.21311475 67.73770492 -8 69 C-12.6532764 74.20072068 -12.79364462 79.21503516 -13 86 C-13.06316406 87.26585937 -13.12632813 88.53171875 -13.19140625 89.8359375 C-13.23136719 91.14820313 -13.27132812 92.46046875 -13.3125 93.8125 C-13.36857422 95.64748047 -13.36857422 95.64748047 -13.42578125 97.51953125 C-12.91532308 101.69217556 -11.6393021 103.7657926 -9 107 C-7.9275 107.66 -6.855 108.32 -5.75 109 C-4.8425 109.66 -3.935 110.32 -3 111 C-3 112.98 -3 114.96 -3 117 C-12.9 117 -22.8 117 -33 117 C-33.33 105.12 -33.66 93.24 -34 81 C-38.62 81 -43.24 81 -48 81 C-48.33 92.88 -48.66 104.76 -49 117 C-58.9 117 -68.8 117 -79 117 C-79 111 -79 111 -77.3203125 109.2421875 C-76.59585938 108.79101562 -75.87140625 108.33984375 -75.125 107.875 C-71.98494744 105.88292364 -70.1937705 104.58749685 -69 101 C-68.65295904 96.00025729 -68.84706509 91.00606949 -69 86 C-69.01804687 85.02289063 -69.03609375 84.04578125 -69.0546875 83.0390625 C-69.3602938 77.19658916 -70.78903036 73.17392299 -75 69 C-76.31747324 68.30251417 -77.64914193 67.63040043 -79 67 C-80.8125 64.6875 -80.8125 64.6875 -82 62 C-81.68404492 60.32995171 -81.34820041 58.66362417 -81 57 C-81.31453125 55.86949219 -81.6290625 54.73898438 -81.953125 53.57421875 C-83.40172034 48.11632949 -83.25481801 42.73719592 -83.1875 37.125 C-83.18685547 36.08085938 -83.18621094 35.03671875 -83.18554688 33.9609375 C-83.14078371 26.28156741 -83.14078371 26.28156741 -82 24 C-83.14339844 23.93941406 -84.28679687 23.87882812 -85.46484375 23.81640625 C-86.95574305 23.73201572 -88.44662775 23.64736698 -89.9375 23.5625 C-90.69224609 23.52318359 -91.44699219 23.48386719 -92.22460938 23.44335938 C-97.88671875 23.11328125 -97.88671875 23.11328125 -99 22 C-99.43495199 17.88198683 -98.66132204 15.90947847 -96.125 12.6875 C-95.59132812 11.99011719 -95.05765625 11.29273437 -94.5078125 10.57421875 C-94.01023437 10.05472656 -93.51265625 9.53523438 -93 9 C-92.34 9 -91.68 9 -91 9 C-90.67 9.66 -90.34 10.32 -90 11 C-88.35 11 -86.7 11 -85 11 C-84.67 10.01 -84.34 9.02 -84 8 C-81.734375 7.7265625 -81.734375 7.7265625 -79 8 C-77.015625 9.8984375 -77.015625 9.8984375 -75.25 12.375 C-74.65703125 13.18710938 -74.0640625 13.99921875 -73.453125 14.8359375 C-72 17 -72 17 -71 19 C-71.66 19.33 -72.32 19.66 -73 20 C-71.906875 20.28875 -70.81375 20.5775 -69.6875 20.875 C-66 22 -66 22 -63 24 C-62.8828125 25.953125 -62.8828125 25.953125 -63.125 28.25 C-63.23362765 32.0097237 -63.05025745 32.91676109 -61 36.3125 C-55.46507025 41.80156017 -50.33904206 43.26647021 -42.5625 43.5 C-34.76818101 43.27486529 -28.96533172 42.11359831 -23.5 36.375 C-21.3831233 33.02327856 -20.88127352 31.3108536 -20.9375 27.375 C-20.94652344 26.55773437 -20.95554687 25.74046875 -20.96484375 24.8984375 C-20.97644531 24.27195312 -20.98804687 23.64546875 -21 23 C-18.69 22.01 -16.38 21.02 -14 20 C-14.66 19.67 -15.32 19.34 -16 19 C-16 18.34 -16 17.68 -16 17 C-15.2575 16.278125 -14.515 15.55625 -13.75 14.8125 C-10.26888732 11.25227112 -7.60759126 7.56538534 -6.4375 2.625 C-6.293125 2.08875 -6.14875 1.5525 -6 1 C-3 0 -3 0 0 0 Z " fill="#3DB777" transform="translate(141,75)"/>
<path d="M0 0 C8.30746026 6.74511692 13.75767774 13.54647073 17.16015625 23.75390625 C17.22952687 25.98209066 17.24472709 28.21225149 17.22265625 30.44140625 C17.21363281 31.62089844 17.20460938 32.80039062 17.1953125 34.015625 C17.18371094 34.91925781 17.17210937 35.82289062 17.16015625 36.75390625 C15.18015625 36.09390625 13.20015625 35.43390625 11.16015625 34.75390625 C11.08667969 36.01847656 11.08667969 36.01847656 11.01171875 37.30859375 C10.93695313 38.40429688 10.8621875 39.5 10.78515625 40.62890625 C10.71554688 41.71945313 10.6459375 42.81 10.57421875 43.93359375 C10.16015625 46.75390625 10.16015625 46.75390625 8.16015625 48.75390625 C4.53515625 48.37890625 4.53515625 48.37890625 1.16015625 47.75390625 C1.16015625 44.12390625 1.16015625 40.49390625 1.16015625 36.75390625 C-0.78890625 36.81578125 -0.78890625 36.81578125 -2.77734375 36.87890625 C-7.67575677 36.89445677 -12.12161186 36.00317805 -16.83984375 34.75390625 C-16.83984375 35.74390625 -16.83984375 36.73390625 -16.83984375 37.75390625 C-12.21984375 37.75390625 -7.59984375 37.75390625 -2.83984375 37.75390625 C-2.83984375 39.07390625 -2.83984375 40.39390625 -2.83984375 41.75390625 C-28.49459988 42.08660482 -28.49459988 42.08660482 -37.51171875 34.3125 C-38.66824069 33.17222135 -39.76299237 31.96970619 -40.83984375 30.75390625 C-41.4121875 31.04007813 -41.98453125 31.32625 -42.57421875 31.62109375 C-45.99609375 33.33203125 -49.41796875 35.04296875 -52.83984375 36.75390625 C-49.20984375 36.42390625 -45.57984375 36.09390625 -41.83984375 35.75390625 C-41.83984375 37.07390625 -41.83984375 38.39390625 -41.83984375 39.75390625 C-47.77984375 41.07390625 -53.71984375 42.39390625 -59.83984375 43.75390625 C-59.83984375 42.10390625 -59.83984375 40.45390625 -59.83984375 38.75390625 C-60.82984375 38.75390625 -61.81984375 38.75390625 -62.83984375 38.75390625 C-62.68386719 39.32238281 -62.52789062 39.89085937 -62.3671875 40.4765625 C-61.05721306 45.67308361 -60.72370544 49.5080562 -61.83984375 54.75390625 C-65.21484375 54.87890625 -65.21484375 54.87890625 -68.83984375 54.75390625 C-71.15279195 52.44095805 -71.3356535 51.2748575 -71.96484375 48.12890625 C-72.13242188 47.31164063 -72.3 46.494375 -72.47265625 45.65234375 C-72.59382813 45.02585938 -72.715 44.399375 -72.83984375 43.75390625 C-75.84014433 43.40764034 -75.84014433 43.40764034 -77.40234375 45.25390625 C-77.87671875 45.74890625 -78.35109375 46.24390625 -78.83984375 46.75390625 C-79.49984375 46.75390625 -80.15984375 46.75390625 -80.83984375 46.75390625 C-83.41363077 34.8501413 -81.88948034 24.44311102 -75.58984375 14.06640625 C-68.00692396 2.82658777 -57.5216492 -5.17288774 -43.99121094 -7.93261719 C-28.59324093 -10.17626148 -12.90167442 -9.34259182 0 0 Z " fill="#3D3F42" transform="translate(126.83984375,10.24609375)"/>
<path d="M0 0 C0.33 0 0.66 0 1 0 C0.97905273 0.96824707 0.95810547 1.93649414 0.93652344 2.93408203 C0.86381488 6.54574645 0.81808944 10.15734691 0.78027344 13.76953125 C0.76022778 15.32921244 0.73298343 16.88881913 0.69824219 18.44824219 C0.64940874 20.69745314 0.62696185 22.9456659 0.609375 25.1953125 C0.58872986 25.8861795 0.56808472 26.57704651 0.54681396 27.28884888 C0.54450858 32.32680677 1.81391738 35.14342622 5 39 C6.0725 39.66 7.145 40.32 8.25 41 C9.1575 41.66 10.065 42.32 11 43 C11 44.98 11 46.96 11 49 C1.1 49 -8.8 49 -19 49 C-19.33 37.12 -19.66 25.24 -20 13 C-24.62 13 -29.24 13 -34 13 C-34.33 24.88 -34.66 36.76 -35 49 C-44.9 49 -54.8 49 -65 49 C-65 43 -65 43 -63.3203125 41.2421875 C-62.59585938 40.79101562 -61.87140625 40.33984375 -61.125 39.875 C-57.9281306 37.84687856 -56.36211119 36.55985967 -55 33 C-54.72455865 29.80305813 -54.72455865 29.80305813 -54.8046875 26.265625 C-54.80968262 25.09805664 -54.81467773 23.93048828 -54.81982422 22.72753906 C-54.83803223 21.24995117 -54.85624023 19.77236328 -54.875 18.25 C-54.91625 13.5475 -54.9575 8.845 -55 4 C-36.85 4 -18.7 4 0 4 C0 2.68 0 1.36 0 0 Z " fill="#686BC0" transform="translate(127,143)"/>
<path d="M0 0 C8.30746026 6.74511692 13.75767774 13.54647073 17.16015625 23.75390625 C17.22952687 25.98209066 17.24472709 28.21225149 17.22265625 30.44140625 C17.21363281 31.62089844 17.20460938 32.80039062 17.1953125 34.015625 C17.18371094 34.91925781 17.17210937 35.82289062 17.16015625 36.75390625 C14.68315047 34.27690047 14.97326489 33.52625495 14.91015625 30.12890625 C14.31181793 23.19815409 11.10979918 19.50308801 6.1484375 14.87890625 C-6.83557993 4.06277683 -21.45590069 1.54646031 -37.9140625 3.03125 C-51.44232271 4.88807003 -64.32733221 10.70821074 -72.90234375 21.56640625 C-74.39132202 23.60192713 -75.71297945 25.50017766 -76.83984375 27.75390625 C-77.49984375 27.75390625 -78.15984375 27.75390625 -78.83984375 27.75390625 C-79.16984375 34.02390625 -79.49984375 40.29390625 -79.83984375 46.75390625 C-80.16984375 46.75390625 -80.49984375 46.75390625 -80.83984375 46.75390625 C-83.41363077 34.8501413 -81.88948034 24.44311102 -75.58984375 14.06640625 C-68.00692396 2.82658777 -57.5216492 -5.17288774 -43.99121094 -7.93261719 C-28.59324093 -10.17626148 -12.90167442 -9.34259182 0 0 Z " fill="#52565C" transform="translate(126.83984375,10.24609375)"/>
<path d="M0 0 C3.16641364 2.63124514 5.15141847 4.3292554 6.46875 8.28125 C5.87707031 8.14847656 5.28539062 8.01570313 4.67578125 7.87890625 C3.88558594 7.70230469 3.09539062 7.52570312 2.28125 7.34375 C1.50394531 7.16972656 0.72664063 6.99570312 -0.07421875 6.81640625 C-0.88503906 6.63980469 -1.69585937 6.46320312 -2.53125 6.28125 C-3.3061377 6.10940186 -4.08102539 5.93755371 -4.87939453 5.76049805 C-25.00357896 2.12361957 -47.48787954 6.00302396 -65.53125 15.28125 C-65.20697116 9.93064909 -62.38409191 6.71695351 -58.53125 3.28125 C-42.98165739 -7.47806488 -16.3830993 -11.12432669 0 0 Z " fill="#6E9DB8" transform="translate(124.53125,23.71875)"/>
<path d="M0 0 C19.14 0 38.28 0 58 0 C57.67 3.3 57.34 6.6 57 10 C38.52 10 20.04 10 1 10 C0.67 8.02 0.34 6.04 0 4 C-0.66 3.67 -1.32 3.34 -2 3 C-1.34 3 -0.68 3 0 3 C0 2.01 0 1.02 0 0 Z " fill="#3B3D3F" transform="translate(70,137)"/>
<path d="M0 0 C3.06627706 -0.21665549 6.11727238 -0.37459318 9.1875 -0.5 C10.05181641 -0.56703125 10.91613281 -0.6340625 11.80664062 -0.703125 C14.42376535 -0.78334338 16.4868787 -0.75115122 19 0 C20.76661711 1.90810696 21.81902516 3.71385607 22.92773438 6.06005859 C24.00635885 8.37459019 24.00635885 8.37459019 27.3125 10.125 C28.6428125 11.053125 28.6428125 11.053125 30 12 C30 13.98 30 15.96 30 18 C20.1 18 10.2 18 0 18 C0 12.06 0 6.12 0 0 Z " fill="#B4C6D6" transform="translate(108,174)"/>
<path d="M0 0 C6.27 0 12.54 0 19 0 C19 5.94 19 11.88 19 18 C9.1 18 -0.8 18 -11 18 C-11 12 -11 12 -9.35546875 10.3125 C-8.64003906 9.879375 -7.92460938 9.44625 -7.1875 9 C-2.77665818 6.3004684 -2.65094933 5.30189867 0 0 Z " fill="#B2C5D5" transform="translate(73,174)"/>
<path d="M0 0 C0.43641149 2.98214518 0.48617869 5.16269225 -1.0546875 7.81640625 C-5.35749635 13.20073191 -9.99576504 16.47653532 -16.8984375 17.37890625 C-23.42567032 17.63374783 -28.72251786 17.02261416 -34 13 C-36.3126055 10.86108804 -38.41660418 8.73495641 -40 6 C-40 4.68 -40 3.36 -40 2 C-39.28231445 2.16081055 -38.56462891 2.32162109 -37.82519531 2.48730469 C-33.1524805 3.33527402 -28.48774423 3.22591998 -23.75 3.25 C-22.25146484 3.2809375 -22.25146484 3.2809375 -20.72265625 3.3125 C-14.94626826 3.34270334 -10.23358218 2.7889466 -4.84863281 0.64746094 C-3 0 -3 0 0 0 Z " fill="#9B6449" transform="translate(119,97)"/>
<path d="M0 0 C0.268125 0.598125 0.53625 1.19625 0.8125 1.8125 C1.861285 3.99149215 1.861285 3.99149215 3.375 5.375 C5.65455019 7.65455019 7.22664242 10.31309457 9 13 C9.763125 13.86625 10.52625 14.7325 11.3125 15.625 C11.869375 16.40875 12.42625 17.1925 13 18 C12.60546875 20.1484375 12.60546875 20.1484375 12 22 C9.16640156 22.05449228 6.33387515 22.09390733 3.5 22.125 C2.70851562 22.14175781 1.91703125 22.15851563 1.1015625 22.17578125 C-4.88976098 22.22489046 -10.54544417 21.72727792 -16 19 C-16 18.34 -16 17.68 -16 17 C-15.2575 16.278125 -14.515 15.55625 -13.75 14.8125 C-10.26888732 11.25227112 -7.60759126 7.56538534 -6.4375 2.625 C-6.293125 2.08875 -6.14875 1.5525 -6 1 C-3 0 -3 0 0 0 Z " fill="#3A3C3E" transform="translate(141,75)"/>
<path d="M0 0 C0.33 0 0.66 0 1 0 C1.02578125 0.59167969 1.0515625 1.18335938 1.078125 1.79296875 C1.38145784 7.02993926 1.38145784 7.02993926 4 11.4375 C7.01308263 15.29801212 7.22804638 19.18160077 7 24 C6.36324488 26.16191709 5.55564105 28.12618614 4.6328125 30.1796875 C3.67401878 32.93769906 4.33857281 35.22200582 5 38 C4.67 38.66 4.34 39.32 4 40 C1.4375 40.625 1.4375 40.625 -1 41 C-1.87144869 39.4470724 -2.72153657 37.88214564 -3.5625 36.3125 C-4.27599609 35.00732422 -4.27599609 35.00732422 -5.00390625 33.67578125 C-6.15418268 30.58582299 -6.07244545 29.0886429 -5 26 C-2.9375 24.6875 -2.9375 24.6875 -1 24 C-0.58168596 20.71000718 -0.58168596 20.71000718 -1 17 C-1.825 16.175 -2.65 15.35 -3.5 14.5 C-6 12 -6 12 -6.3125 8.1875 C-6.209375 7.135625 -6.10625 6.08375 -6 5 C-3.525 5.99 -3.525 5.99 -1 7 C-0.67 4.69 -0.34 2.38 0 0 Z " fill="#BB8165" transform="translate(144,39)"/>
<path d="M0 0 C0.391875 0.53625 0.78375 1.0725 1.1875 1.625 C1.785625 2.40875 2.38375 3.1925 3 4 C4.0828125 5.485 4.0828125 5.485 5.1875 7 C8.97856987 11.41917612 13.10489585 13.57796166 18.8671875 14.41796875 C26.078941 14.75745333 31.2730517 13.45024008 37 9 C39.64223285 6.22226803 41.446421 3.49555274 43 0 C43.33 0 43.66 0 44 0 C44.42064893 6.09940955 44.08964656 9.13663653 40 14 C33.40289033 20.24989337 26.36623103 20.45394312 17.63671875 20.30859375 C11.06024254 19.7505469 7.12026733 17.40075624 2.5 12.8125 C-0.39218179 9.21681454 -0.52656429 6.22409551 -0.2109375 1.72265625 C-0.14132813 1.15417969 -0.07171875 0.58570312 0 0 Z " fill="#D8D9D8" transform="translate(77,99)"/>
<path d="M0 0 C2 2 2 2 2.3125 4.3125 C2 7 2 7 0.5 9.375 C-1.41643598 12.72876297 -1.22347316 15.20095633 -1 19 C-0.195625 19.309375 0.60875 19.61875 1.4375 19.9375 C4 21 4 21 5 22 C5.24661958 26.93239162 5.25068913 30.49862174 3 35 C1.35 35 -0.3 35 -2 35 C-3.90097259 30.43766578 -3.90097259 30.43766578 -4.4375 28.06640625 C-5.0387514 25.85764242 -5.93398808 24.17351919 -7.0625 22.1875 C-9.04809462 18.28153103 -9.57391982 15.42738149 -9 11 C-7.1090817 5.74744918 -4.33055443 3.27197446 0 0 Z " fill="#B87C5F" transform="translate(53,52)"/>
<path d="M0 0 C2.265625 -0.2734375 2.265625 -0.2734375 5 0 C6.984375 1.8984375 6.984375 1.8984375 8.75 4.375 C9.34296875 5.18710938 9.9359375 5.99921875 10.546875 6.8359375 C12 9 12 9 13 11 C6.90237981 13.66421249 2.11470109 14.39757601 -4.5 14.1875 C-5.73363281 14.16719727 -5.73363281 14.16719727 -6.9921875 14.14648438 C-8.99508221 14.11155016 -10.99763356 14.05776057 -13 14 C-12.203125 8.2890625 -12.203125 8.2890625 -10.375 5.6875 C-7.30020593 3.5027779 -4.71520613 3.28578509 -1 3 C-0.67 2.01 -0.34 1.02 0 0 Z " fill="#393B3D" transform="translate(57,83)"/>
<path d="M0 0 C0.77403168 0.00141495 1.54806335 0.0028299 2.34555054 0.00428772 C4.82155192 0.00989222 7.29746338 0.02244542 9.7734375 0.03515625 C11.45051953 0.04017067 13.12760297 0.04473368 14.8046875 0.04882812 C18.91930556 0.0598631 23.03385628 0.07713071 27.1484375 0.09765625 C27.8084375 1.41765625 28.4684375 2.73765625 29.1484375 4.09765625 C18.61629055 9.98608387 2.38575074 7.60500464 -8.8515625 5.09765625 C-9.5115625 4.76765625 -10.1715625 4.43765625 -10.8515625 4.09765625 C-10.5215625 3.10765625 -10.1915625 2.11765625 -9.8515625 1.09765625 C-6.73202122 -0.46211439 -3.42196866 -0.02338501 0 0 Z " fill="#25A15F" transform="translate(89.8515625,118.90234375)"/>
<path d="M0 0 C2.98106539 2.59887752 3.89388856 4.13342323 4.375 8.0625 C4.0066092 10.94822797 3.68261422 12.6443401 2 15 C-0.96157072 17.04246256 -3.45225073 17.60571329 -7 17 C-9.81563294 14.99777213 -11.63653223 13.4684098 -12.48828125 10.02734375 C-12.73053432 6.32433253 -12.29748219 4.36058448 -9.9375 1.5 C-6.24601675 -0.38501272 -4.09135771 -0.6694949 0 0 Z " fill="#F2EFED" transform="translate(85,60)"/>
<path d="M0 0 C2.88589482 0.45964857 4.11824871 0.9799521 5.9375 3.30859375 C6.83801815 6.02780541 7.16590914 8.45069402 6.9375 11.30859375 C5.04168749 14.87272126 3.81903897 16.00849538 0 17.30859375 C-3.63491294 17.30859375 -5.21114833 16.50820789 -8.0625 14.30859375 C-9.66188696 11.10981983 -9.41998026 7.78715162 -9.0625 4.30859375 C-7.27601123 -0.15762819 -4.61493905 -0.27995035 0 0 Z " fill="#F2EEEC" transform="translate(116.0625,56.69140625)"/>
<path d="M0 0 C1.27351308 2.54702616 0.80191925 3.4282945 0.0625 6.125 C-0.13214844 6.84945312 -0.32679687 7.57390625 -0.52734375 8.3203125 C-0.76130859 9.15175781 -0.76130859 9.15175781 -1 10 C0.3303125 10.0928125 0.3303125 10.0928125 1.6875 10.1875 C5.83735563 11.20538912 7.45160952 12.60214602 10 16 C10.0625 18.6875 10.0625 18.6875 9 21 C7.67592331 21.68486725 6.34090759 22.34870203 5 23 C3.62156808 24.96918846 2.28189588 26.96664791 1 29 C0.67 29 0.34 29 0 29 C0 24.71 0 20.42 0 16 C-2.64 16 -5.28 16 -8 16 C-7.86660043 8.52962434 -5.25345294 5.15743683 0 0 Z " fill="#28A160" transform="translate(128,121)"/>
<path d="M0 0 C0 0.99 0 1.98 0 3 C-0.66 3.66 -1.32 4.32 -2 5 C5.92 5.33 13.84 5.66 22 6 C22 7.98 22 9.96 22 12 C12.1 12 2.2 12 -8 12 C-8 6 -8 6 -6.25 4.1015625 C-5.5075 3.61429688 -4.765 3.12703125 -4 2.625 C-3.2575 2.12226563 -2.515 1.61953125 -1.75 1.1015625 C-0.88375 0.55628906 -0.88375 0.55628906 0 0 Z " fill="#D5D6D7" transform="translate(70,180)"/>
<path d="M0 0 C6.27 0 12.54 0 19 0 C19 3.3 19 6.6 19 10 C12.73 10 6.46 10 0 10 C0 6.7 0 3.4 0 0 Z " fill="#BA7858" transform="translate(108,164)"/>
<path d="M0 0 C6.27 0 12.54 0 19 0 C19 3.3 19 6.6 19 10 C12.73 10 6.46 10 0 10 C0 6.7 0 3.4 0 0 Z " fill="#BA7858" transform="translate(73,164)"/>
<path d="M0 0 C4.34225838 3.28081744 7.03609323 5.76291528 9 11 C9.1875 13.875 9.1875 13.875 9 16 C6.36 16 3.72 16 1 16 C1.144375 16.825 1.28875 17.65 1.4375 18.5 C2.05253152 22.32686278 2.53560637 26.15216707 3 30 C-1.875 25.25 -1.875 25.25 -3 23 C-3.66 22.731875 -4.32 22.46375 -5 22.1875 C-7 21 -7 21 -8.0625 18.6875 C-8 16 -8 16 -5.875 13.25 C-3 11 -3 11 2 10 C1.34 6.7 0.68 3.4 0 0 Z " fill="#27A161" transform="translate(69,121)"/>
<path d="M0 0 C0 1.98 0 3.96 0 6 C-9.9 6 -19.8 6 -30 6 C-30 4.02 -30 2.04 -30 0 C-25.56285102 -0.19652332 -21.12527385 -0.38067922 -16.6875 -0.5625 C-14.79354492 -0.64661133 -14.79354492 -0.64661133 -12.86132812 -0.73242188 C-11.65283203 -0.78076172 -10.44433594 -0.82910156 -9.19921875 -0.87890625 C-8.08377686 -0.9260376 -6.96833496 -0.97316895 -5.8190918 -1.02172852 C-3 -1 -3 -1 0 0 Z " fill="#D6D6D6" transform="translate(138,186)"/>
<path d="M0 0 C2.0625 1.5625 2.0625 1.5625 3 4 C2.93375803 7.77579201 2.78061285 10.07482922 0.3125 13 C-2.87167993 14.37694267 -4.70924801 13.980224 -8 13 C-9.875 11.875 -9.875 11.875 -11 10 C-11.36248449 6.61681143 -11.58433618 4.13215135 -10 1.0625 C-6.75482811 -0.66149757 -3.58008387 -0.65498416 0 0 Z " fill="#A96140" transform="translate(104,82)"/>
<path d="M0 0 C1.98 0 3.96 0 6 0 C6 0.66 6 1.32 6 2 C7.32 1.67 8.64 1.34 10 1 C9.814375 1.70125 9.62875 2.4025 9.4375 3.125 C8.9486371 6.33752761 9.43494316 8.82155525 10 12 C9.67 12.66 9.34 13.32 9 14 C6.4375 14.625 6.4375 14.625 4 15 C3.12855131 13.4470724 2.27846343 11.88214564 1.4375 10.3125 C0.72400391 9.00732422 0.72400391 9.00732422 -0.00390625 7.67578125 C-1.14268368 4.61671247 -0.92718689 3.08136961 0 0 Z " fill="#E0995D" transform="translate(139,65)"/>
<path d="M0 0 C3.57317299 0.29386843 5.69788293 0.95713442 8.65234375 3.046875 C9.12671875 3.76875 9.60109375 4.490625 10.08984375 5.234375 C9.75984375 6.554375 9.42984375 7.874375 9.08984375 9.234375 C4.46984375 9.234375 -0.15015625 9.234375 -4.91015625 9.234375 C-5.91015625 5.234375 -5.91015625 5.234375 -4.47265625 2.421875 C-1.91015625 0.234375 -1.91015625 0.234375 0 0 Z " fill="#5D60B0" transform="translate(97.91015625,146.765625)"/>
<path d="M0 0 C2.27029534 0.39143023 3.83408198 0.88741278 5.75 2.1875 C7.61326 4.88922699 7.392614 6.79365235 7 10 C5.5 12.375 5.5 12.375 4 14 C1.625 13.6875 1.625 13.6875 -1 13 C-3.32579101 9.51131349 -3.41865457 8.10281481 -3 4 C-1.5 1.625 -1.5 1.625 0 0 Z " fill="#444649" transform="translate(111,58)"/>
<path d="M0 0 C0.268125 0.598125 0.53625 1.19625 0.8125 1.8125 C1.861285 3.99149215 1.861285 3.99149215 3.375 5.375 C5.65455019 7.65455019 7.22664242 10.31309457 9 13 C10.1446875 14.299375 10.1446875 14.299375 11.3125 15.625 C13 18 13 18 12.75 20.3125 C12.5025 20.869375 12.255 21.42625 12 22 C11.34 22 10.68 22 10 22 C9.484375 20.96875 8.96875 19.9375 8.4375 18.875 C6.37379081 15.22665697 3.85524971 12.953393 0.6171875 10.34765625 C-1.28808778 8.75992685 -2.71252309 7.12055021 -4 5 C-4 4.34 -4 3.68 -4 3 C-4.66 3 -5.32 3 -6 3 C-6 2.34 -6 1.68 -6 1 C-3 0 -3 0 0 0 Z " fill="#5B5D62" transform="translate(141,75)"/>
<path d="M0 0 C2.375 0.3125 2.375 0.3125 5 1 C7.45811625 4.68717438 7.31118164 6.64345704 7 11 C6.01 12.485 6.01 12.485 5 14 C0.25 13.25 0.25 13.25 -2 11 C-2.46376812 3.69565217 -2.46376812 3.69565217 0 0 Z " fill="#404245" transform="translate(80,61)"/>
<path d="M0 0 C0.33 0 0.66 0 1 0 C1.061875 0.886875 1.12375 1.77375 1.1875 2.6875 C1.72854331 6.18068777 1.72854331 6.18068777 4.5625 8.4375 C7 11 7 11 7.625 14.625 C7 18 7 18 4.5625 19.75 C3.716875 20.1625 2.87125 20.575 2 21 C1.67 21.99 1.34 22.98 1 24 C0.34 24 -0.32 24 -1 24 C-1.19401633 22.18818595 -1.38004375 20.37551468 -1.5625 18.5625 C-1.66691406 17.55316406 -1.77132812 16.54382813 -1.87890625 15.50390625 C-1.93884766 14.26447266 -1.93884766 14.26447266 -2 13 C-1.67 12.67 -1.34 12.34 -1 12 C-0.76572222 9.98405418 -0.58663876 7.961526 -0.4375 5.9375 C-0.35371094 4.83277344 -0.26992187 3.72804687 -0.18359375 2.58984375 C-0.12300781 1.73519531 -0.06242188 0.88054688 0 0 Z " fill="#A25E3F" transform="translate(137,45)"/>
<path d="M0 0 C1.66611905 -0.042721 3.33382885 -0.04063832 5 0 C6 1 6 1 6.1875 4.75 C6.15615249 8.23584286 5.57760458 10.84479083 4 14 C2.35 14 0.7 14 -1 14 C-2.84254375 10.20652758 -3.24522395 8.04697783 -2 4 C-0.9375 1.6875 -0.9375 1.6875 0 0 Z " fill="#E49C60" transform="translate(52,73)"/>
<path d="M0 0 C0.33 0 0.66 0 1 0 C1.33 2.31 1.66 4.62 2 7 C4.31 7.66 6.62 8.32 9 9 C9 9.33 9 9.66 9 10 C7.35 10 5.7 10 4 10 C4.33 13.3 4.66 16.6 5 20 C4.34 20 3.68 20 3 20 C2.34 19.01 1.68 18.02 1 17 C-1.55183404 15.79549696 -1.55183404 15.79549696 -4 15 C-4.50610724 8.92671312 -3.04157942 5.22771463 0 0 Z " fill="#A25E3F" transform="translate(55,56)"/>
<path d="M0 0 C1.19109375 0.00773437 1.19109375 0.00773437 2.40625 0.015625 C3.2003125 0.01046875 3.994375 0.0053125 4.8125 0 C6.90625 0.265625 6.90625 0.265625 8.90625 2.265625 C8.53943342 5.20015761 8.04187754 6.12999746 5.90625 8.265625 C4.03125 8.49609375 4.03125 8.49609375 1.90625 8.453125 C1.205 8.44667969 0.50375 8.44023438 -0.21875 8.43359375 C-2.09375 8.265625 -2.09375 8.265625 -4.09375 7.265625 C-4.21875 4.890625 -4.21875 4.890625 -4.09375 2.265625 C-2.09375 0.265625 -2.09375 0.265625 0 0 Z " fill="#955435" transform="translate(96.09375,68.734375)"/>
<path d="M0 0 C-1.1560061 3.46801831 -2.28300092 3.90682552 -5.25390625 5.7734375 C-10.64164719 9.55811458 -14.90017379 14.90627653 -19 20 C-19 15.24704944 -16.03548405 12.48920903 -13 9 C-3.70233463 0 -3.70233463 0 0 0 Z " fill="#828589" transform="translate(70,8)"/>
<path d="M0 0 C0.66 0 1.32 0 2 0 C2.33 0.99 2.66 1.98 3 3 C2.21625 3.53625 1.4325 4.0725 0.625 4.625 C-2.59507557 7.14748941 -2.59507557 7.14748941 -4 13 C0.95 13 5.9 13 11 13 C11 13.33 11 13.66 11 14 C8.35409986 14.02684679 5.70846904 14.04676357 3.0625 14.0625 C1.93038086 14.07506836 1.93038086 14.07506836 0.77539062 14.08789062 C-1.14994313 14.09652441 -3.07535581 14.05224333 -5 14 C-6 13 -6 13 -6.2421875 10.70703125 C-5.95528797 7.5002349 -5.09871155 6.19477472 -3.125 3.6875 C-2.59132812 2.99011719 -2.05765625 2.29273437 -1.5078125 1.57421875 C-0.76144531 0.79498047 -0.76144531 0.79498047 0 0 Z " fill="#74767A" transform="translate(48,84)"/>
<path d="M0 0 C5.94 0.66 11.88 1.32 18 2 C18 4.97 18 7.94 18 11 C17.67 11 17.34 11 17 11 C17 8.36 17 5.72 17 3 C16.34 3 15.68 3 15 3 C15 4.65 15 6.3 15 8 C13.68 7.67 12.36 7.34 11 7 C11.99 7 12.98 7 14 7 C14 5.68 14 4.36 14 3 C9.38 3 4.76 3 0 3 C0 2.01 0 1.02 0 0 Z " fill="#8B614E" transform="translate(110,45)"/>
<path d="M0 0 C0.33 0.66 0.66 1.32 1 2 C2.32 1.67 3.64 1.34 5 1 C4.01 4.3 3.02 7.6 2 11 C1.01 11 0.02 11 -1 11 C-1.125 3.375 -1.125 3.375 0 0 Z " fill="#D79461" transform="translate(144,65)"/>
<path d="M0 0 C2.64 0.66 5.28 1.32 8 2 C5.33333333 4.66666667 2.66666667 7.33333333 0 10 C0 6.7 0 3.4 0 0 Z " fill="#B78A72" transform="translate(128,140)"/>
<path d="M0 0 C1.48320272 3.83887763 2.22419163 6.06204091 1 10 C0.67386719 9.51789063 0.34773438 9.03578125 0.01171875 8.5390625 C-0.42527344 7.90742188 -0.86226563 7.27578125 -1.3125 6.625 C-1.74175781 5.99851563 -2.17101562 5.37203125 -2.61328125 4.7265625 C-4.06920339 2.73621155 -4.06920339 2.73621155 -7 1 C-4 0 -4 0 0 0 Z " fill="#B98F78" transform="translate(70,141)"/>
<path d="M0 0 C1.670625 0.061875 1.670625 0.061875 3.375 0.125 C2.055 2.435 0.735 4.745 -0.625 7.125 C-2.275 5.475 -3.925 3.825 -5.625 2.125 C-3.625 0.125 -3.625 0.125 0 0 Z " fill="#534D4B" transform="translate(73.625,59.875)"/>
<path d="M0 0 C-3.0131306 2.21553721 -4.45160985 3.03163789 -8.25 2.8125 C-9.1575 2.544375 -10.065 2.27625 -11 2 C-11.33 1.34 -11.66 0.68 -12 0 C-10.56359829 -0.19573608 -9.12580496 -0.38127816 -7.6875 -0.5625 C-6.88699219 -0.66691406 -6.08648437 -0.77132812 -5.26171875 -0.87890625 C-3 -1 -3 -1 0 0 Z " fill="#8B5840" transform="translate(108,102)"/>
<path d="M0 0 C-1.1446875 0.8971875 -1.1446875 0.8971875 -2.3125 1.8125 C-5.50391427 4.41016278 -7.7151483 6.57272246 -10 10 C-9.68657358 6.55230934 -9.32465015 4.44059663 -7.25 1.625 C-4.58988985 -0.29619066 -3.20935531 -0.35659503 0 0 Z " fill="#424447" transform="translate(54,87)"/>
<path d="M0 0 C2.125 0.9375 2.125 0.9375 4 2 C0.93882432 4.62386487 0.26826873 5 -4 5 C-2.25 1.125 -2.25 1.125 0 0 Z " fill="#CDD5CF" transform="translate(124,93)"/>
<path d="M0 0 C0.66 0.66 1.32 1.32 2 2 C1.625 5.125 1.625 5.125 1 8 C-0.32 7.67 -1.64 7.34 -3 7 C-2.01 4.69 -1.02 2.38 0 0 Z " fill="#E1B28D" transform="translate(147,71)"/>
<path d="M0 0 C2.31 0 4.62 0 7 0 C6.01 1.98 5.02 3.96 4 6 C2.62437146 4.71034824 1.29233607 3.37310707 0 2 C0 1.34 0 0.68 0 0 Z " fill="#484545" transform="translate(119,56)"/>
<path d="M0 0 C4.95 0 9.9 0 15 0 C15 0.33 15 0.66 15 1 C11.37 1 7.74 1 4 1 C3.67 2.32 3.34 3.64 3 5 C2.01 3.35 1.02 1.7 0 0 Z " fill="#9DA2A2" transform="translate(137,97)"/>
<path d="M0 0 C0.99 0 1.98 0 3 0 C2.67 2.31 2.34 4.62 2 7 C1.01 7.33 0.02 7.66 -1 8 C-0.67 5.36 -0.34 2.72 0 0 Z " fill="#7AC69E" transform="translate(59,97)"/>
</svg>
